RobotoSlab_Bold.ufo
<glyph name="period" format="1">
  <advance width="532"/>
  <unicode hex="002E"/>
  <outline>
    <contour>
      <point x="446" y="284" type="line"/>
      <point x="124" y="284" type="line"/>
      <point x="124" y="0" type="line"/>
      <point x="446" y="0" type="line"/>
    </contour>
  </outline>
</glyph>
<glyph name="question" format="1">
  <advance width="996"/>
  <unicode hex="003F"/>
  <outline>
    <contour>
      <point x="637" y="416" type="line"/>
      <point x="637" y="523"/>
      <point x="656" y="581"/>
      <point x="743" y="638" type="curve"/>
      <point x="885" y="714"/>
      <point x="1006" y="860"/>
      <point x="1006" y="1033" type="curve" smooth="yes"/>
      <point x="1006" y="1304"/>
      <point x="819" y="1477"/>
      <point x="505" y="1477" type="curve" smooth="yes"/>
      <point x="233" y="1477"/>
      <point x="21" y="1352"/>
      <point x="17" y="1054" type="curve"/>
      <point x="340" y="1054" type="line"/>
      <point x="343" y="1169"/>
      <point x="421" y="1217"/>
      <point x="505" y="1217" type="curve" smooth="yes"/>
      <point x="622" y="1217"/>
      <point x="683" y="1142"/>
      <point x="683" y="1033" type="curve" smooth="yes"/>
      <point x="683" y="921"/>
      <point x="619" y="840"/>
      <point x="535" y="786" type="curve" smooth="yes"/>
      <point x="386" y="680"/>
      <point x="317" y="618"/>
      <point x="315" y="416" type="curve"/>
    </contour>
    <contour>
      <point x="637" y="270" type="line"/>
      <point x="315" y="270" type="line"/>
      <point x="315" y="0" type="line"/>
      <point x="637" y="0" type="line"/>
    </contour>
  </outline>
</glyph>
<glyph name="at" format="1">
  <advance width="1801"/>
  <unicode hex="0040"/>
  <outline>
    <contour>
      <point x="1740" y="520" type="curve" smooth="yes"/>
      <point x="1762" y="1067"/>
      <point x="1477" y="1410"/>
      <point x="952" y="1410" type="curve" smooth="yes"/>
      <point x="424" y="1410"/>
      <point x="85" y="1049"/>
      <point x="61" y="478" type="curve" smooth="yes"/>
      <point x="39" y="-96"/>
      <point x="343" y="-453"/>
      <point x="879" y="-453" type="curve" smooth="yes"/>
      <point x="1003" y="-453"/>
      <point x="1159" y="-424"/>
      <point x="1252" y="-364" type="curve"/>
      <point x="1214" y="-198" type="line"/>
      <point x="1130" y="-234"/>
      <point x="999" y="-263"/>
      <point x="883" y="-263" type="curve" smooth="yes"/>
      <point x="477" y="-263"/>
      <point x="251" y="24"/>
      <point x="273" y="478" type="curve" smooth="yes"/>
      <point x="294" y="945"/>
      <point x="542" y="1238"/>
      <point x="948" y="1238" type="curve" smooth="yes"/>
      <point x="1377" y="1238"/>
      <point x="1567" y="961"/>
      <point x="1546" y="520" type="curve" smooth="yes"/>
      <point x="1536" y="312"/>
      <point x="1446" y="141"/>
      <point x="1289" y="141" type="curve" smooth="yes"/>
      <point x="1256" y="141"/>
      <point x="1220" y="165"/>
      <point x="1228" y="293" type="curve" smooth="yes"/>
      <point x="1279" y="859" type="line"/>
      <point x="1061" y="859" type="line"/>
      <point x="1010" y="293" type="line" smooth="yes"/>
      <point x="1001" y="100"/>
      <point x="1099" y="-21"/>
      <point x="1246" y="-21" type="curve" smooth="yes"/>
      <point x="1597" y="-21"/>
      <point x="1730" y="266"/>
    </contour>
    <contour>
      <point x="730" y="416" type="curve" smooth="yes"/>
      <point x="753" y="651"/>
      <point x="820" y="778"/>
      <point x="965" y="778" type="curve" smooth="yes"/>
      <point x="1059" y="778"/>
      <point x="1128" y="738"/>
      <point x="1171" y="703" type="curve"/>
      <point x="1277" y="863" type="line"/>
      <point x="1185" y="921"/>
      <point x="1103" y="969"/>
      <point x="926" y="969" type="curve" smooth="yes"/>
      <point x="700" y="969"/>
      <point x="524" y="753"/>
      <point x="489" y="416" type="curve" smooth="yes"/>
      <point x="463" y="154"/>
      <point x="577" y="-17"/>
      <point x="771" y="-17" type="curve" smooth="yes"/>
      <point x="910" y="-17"/>
      <point x="1006" y="66"/>
      <point x="1059" y="231" type="curve"/>
      <point x="1028" y="345" type="line"/>
      <point x="979" y="201"/>
      <point x="908" y="173"/>
      <point x="836" y="173" type="curve" smooth="yes"/>
      <point x="755" y="173"/>
      <point x="718" y="257"/>
    </contour>
  </outline>
</glyph>
<glyph name="D" format="1">
  <advance width="1409"/>
  <unicode hex="0044"/>
  <outline>
    <contour>
      <point x="721" y="0" type="line" smooth="yes"/>
      <point x="1065" y="0"/>
      <point x="1327" y="243"/>
      <point x="1327" y="597" type="curve" smooth="yes"/>
      <point x="1327" y="859" type="line" smooth="yes"/>
      <point x="1327" y="1213"/>
      <point x="1065" y="1456"/>
      <point x="721" y="1456" type="curve" smooth="yes"/>
      <point x="337" y="1456" type="line"/>
      <point x="337" y="1196" type="line"/>
      <point x="701" y="1196" type="line" smooth="yes"/>
      <point x="895" y="1196"/>
      <point x="1004" y="1059"/>
      <point x="1004" y="861" type="curve" smooth="yes"/>
      <point x="1004" y="597" type="line" smooth="yes"/>
      <point x="1004" y="399"/>
      <point x="895" y="260"/>
      <point x="701" y="260" type="curve" smooth="yes"/>
      <point x="345" y="260" type="line"/>
      <point x="343" y="0" type="line"/>
    </contour>
    <contour>
      <point x="527" y="1456" type="line"/>
      <point x="204" y="1456" type="line"/>
      <point x="204" y="0" type="line"/>
      <point x="527" y="0" type="line"/>
    </contour>
    <contour>
      <point x="204" y="0" type="line"/>
      <point x="204" y="230" type="line"/>
      <point x="51" y="200" type="line"/>
      <point x="51" y="0" type="line"/>
    </contour>
    <contour>
      <point x="204" y="1456" type="line"/>
      <point x="51" y="1456" type="line"/>
      <point x="51" y="1256" type="line"/>
      <point x="204" y="1226" type="line"/>
    </contour>
  </outline>
</glyph>
<glyph name="S" format="1">
  <advance width="1240"/>
  <unicode hex="0053"/>
  <outline>
    <contour>
      <point x="1174" y="1284" type="line"/>
      <point x="1047" y="1404"/>
      <point x="855" y="1476"/>
      <point x="617" y="1476" type="curve" smooth="yes"/>
      <point x="325" y="1471"/>
      <point x="88" y="1316"/>
      <point x="88" y="1068" type="curve" smooth="yes"/>
      <point x="88" y="796"/>
      <point x="311" y="694"/>
      <point x="625" y="594" type="curve" smooth="yes"/>
      <point x="802" y="536"/>
      <point x="870" y="495"/>
      <point x="870" y="386" type="curve" smooth="yes"/>
      <point x="870" y="302"/>
      <point x="804" y="234"/>
      <point x="650" y="234" type="curve" smooth="yes"/>
      <point x="529" y="234"/>
      <point x="426" y="263"/>
      <point x="373" y="307" type="curve"/>
      <point x="345" y="512" type="line"/>
      <point x="93" y="512" type="line"/>
      <point x="93" y="191" type="line"/>
      <point x="220" y="58"/>
      <point x="412" y="-21"/>
      <point x="650" y="-21" type="curve" smooth="yes"/>
      <point x="972" y="-21"/>
      <point x="1193" y="128"/>
      <point x="1193" y="388" type="curve" smooth="yes"/>
      <point x="1193" y="657"/>
      <point x="1000" y="777"/>
      <point x="697" y="867" type="curve"/>
      <point x="497" y="938"/>
      <point x="410" y="976"/>
      <point x="410" y="1066" type="curve" smooth="yes"/>
      <point x="410" y="1151"/>
      <point x="490" y="1216"/>
      <point x="637" y="1216" type="curve" smooth="yes"/>
      <point x="743" y="1216"/>
      <point x="850" y="1193"/>
      <point x="894" y="1168" type="curve"/>
      <point x="932" y="972" type="line"/>
      <point x="1174" y="972" type="line"/>
    </contour>
  </outline>
</glyph>
<glyph name="grave" format="1">
  <advance width="636"/>
  <unicode hex="0060"/>
  <outline>
    <contour>
      <point x="395" y="1478" type="line"/>
      <point x="52" y="1478" type="line"/>
      <point x="337" y="1212" type="line"/>
      <point x="599" y="1212" type="line"/>
    </contour>
  </outline>
</glyph>
<glyph name="j" format="1">
  <advance width="608"/>
  <unicode hex="006A"/>
  <outline>
    <contour>
      <point x="192" y="1082" type="line"/>
      <point x="192" y="-15" type="line" smooth="yes"/>
      <point x="192" y="-122"/>
      <point x="150" y="-177"/>
      <point x="74" y="-177" type="curve" smooth="yes"/>
      <point x="31" y="-177"/>
      <point x="7" y="-173"/>
      <point x="-26" y="-165" type="curve"/>
      <point x="-40" y="-420" type="line"/>
      <point x="15" y="-433"/>
      <point x="60" y="-437"/>
      <point x="115" y="-437" type="curve" smooth="yes"/>
      <point x="364" y="-437"/>
      <point x="515" y="-288"/>
      <point x="515" y="-15" type="curve" smooth="yes"/>
      <point x="515" y="1082" type="line"/>
    </contour>
    <contour>
      <point x="509" y="1560" type="line"/>
      <point x="186" y="1560" type="line"/>
      <point x="186" y="1334" type="line"/>
      <point x="509" y="1334" type="line"/>
    </contour>
    <contour>
      <point x="192" y="1082" type="line"/>
      <point x="39" y="1082" type="line"/>
      <point x="39" y="882" type="line"/>
      <point x="192" y="852" type="line"/>
    </contour>
  </outline>
</glyph>
<glyph name="k" format="1">
  <advance width="1250"/>
  <unicode hex="006B"/>
  <outline>
    <contour>
      <point x="498" y="1560" type="line"/>
      <point x="176" y="1560" type="line"/>
      <point x="176" y="0" type="line"/>
      <point x="498" y="0" type="line"/>
    </contour>
    <contour>
      <point x="865" y="0" type="line"/>
      <point x="865" y="230" type="line"/>
      <point x="702" y="200" type="line"/>
      <point x="702" y="0" type="line"/>
    </contour>
    <contour>
      <point x="830" y="1082" type="line"/>
      <point x="597" y="1082" type="line"/>
      <point x="597" y="882" type="line"/>
      <point x="830" y="852" type="line"/>
    </contour>
    <contour>
      <point x="176" y="0" type="line"/>
      <point x="176" y="230" type="line"/>
      <point x="43" y="200" type="line"/>
      <point x="43" y="0" type="line"/>
    </contour>
    <contour>
      <point x="498" y="0" type="line"/>
      <point x="611" y="0" type="line"/>
      <point x="611" y="200" type="line"/>
      <point x="498" y="230" type="line"/>
    </contour>
    <contour>
      <point x="176" y="1560" type="line"/>
      <point x="23" y="1560" type="line"/>
      <point x="23" y="1360" type="line"/>
      <point x="176" y="1330" type="line"/>
    </contour>
    <contour>
      <point x="865" y="0" type="line"/>
      <point x="1217" y="0" type="line"/>
      <point x="1217" y="200" type="line"/>
      <point x="1110" y="221" type="line"/>
      <point x="840" y="650" type="line"/>
      <point x="597" y="473" type="line"/>
    </contour>
    <contour>
      <point x="1154" y="1082" type="line"/>
      <point x="830" y="1082" type="line"/>
      <point x="542" y="655" type="line"/>
      <point x="282" y="655" type="line"/>
      <point x="417" y="430" type="line"/>
      <point x="735" y="430" type="line"/>
      <point x="1028" y="853" type="line"/>
      <point x="1154" y="882" type="line"/>
    </contour>
  </outline>
</glyph>
<glyph name="n" format="1">
  <advance width="1295"/>
  <unicode hex="006E"/>
  <outline>
    <contour>
      <point x="498" y="851" type="line"/>
      <point x="478" y="1082" type="line"/>
      <point x="176" y="1082" type="line"/>
      <point x="176" y="0" type="line"/>
      <point x="498" y="0" type="line"/>
    </contour>
    <contour>
      <point x="437" y="578" type="line"/>
      <point x="437" y="729"/>
      <point x="513" y="842"/>
      <point x="656" y="842" type="curve" smooth="yes"/>
      <point x="757" y="842"/>
      <point x="816" y="802"/>
      <point x="816" y="672" type="curve" smooth="yes"/>
      <point x="816" y="0" type="line"/>
      <point x="1139" y="0" type="line"/>
      <point x="1139" y="671" type="line" smooth="yes"/>
      <point x="1139" y="985"/>
      <point x="1000" y="1102"/>
      <point x="798" y="1102" type="curve" smooth="yes"/>
      <point x="558" y="1102"/>
      <point x="398" y="880"/>
      <point x="398" y="576" type="curve"/>
    </contour>
    <contour>
      <point x="176" y="1082" type="line"/>
      <point x="23" y="1082" type="line"/>
      <point x="23" y="882" type="line"/>
      <point x="176" y="852" type="line"/>
    </contour>
    <contour>
      <point x="498" y="0" type="line"/>
      <point x="601" y="0" type="line"/>
      <point x="601" y="200" type="line"/>
      <point x="498" y="230" type="line"/>
    </contour>
    <contour>
      <point x="1139" y="0" type="line"/>
      <point x="1272" y="0" type="line"/>
      <point x="1272" y="200" type="line"/>
      <point x="1139" y="230" type="line"/>
    </contour>
    <contour>
      <point x="816" y="0" type="line"/>
      <point x="816" y="230" type="line"/>
      <point x="703" y="200" type="line"/>
      <point x="703" y="0" type="line"/>
    </contour>
    <contour>
      <point x="176" y="0" type="line"/>
      <point x="176" y="230" type="line"/>
      <point x="43" y="200" type="line"/>
      <point x="43" y="0" type="line"/>
    </contour>
  </outline>
</glyph>
<glyph name="s" format="1">
  <advance width="1058"/>
  <unicode hex="0073"/>
  <outline>
    <contour>
      <point x="955" y="977" type="line"/>
      <point x="872" y="1046"/>
      <point x="704" y="1100"/>
      <point x="530" y="1100" type="curve" smooth="yes"/>
      <point x="222" y="1100"/>
      <point x="90" y="923"/>
      <point x="90" y="760" type="curve" smooth="yes"/>
      <point x="90" y="573"/>
      <point x="233" y="480"/>
      <point x="473" y="432" type="curve" smooth="yes"/>
      <point x="648" y="397"/>
      <point x="687" y="352"/>
      <point x="687" y="304" type="curve" smooth="yes"/>
      <point x="687" y="241"/>
      <point x="633" y="202"/>
      <point x="519" y="202" type="curve" smooth="yes"/>
      <point x="464" y="202"/>
      <point x="401" y="212"/>
      <point x="368" y="237" type="curve"/>
      <point x="328" y="377" type="line"/>
      <point x="106" y="377" type="line"/>
      <point x="110" y="138" type="line"/>
      <point x="216" y="42"/>
      <point x="359" y="-21"/>
      <point x="531" y="-21" type="curve" smooth="yes"/>
      <point x="817" y="-21"/>
      <point x="998" y="123"/>
      <point x="998" y="314" type="curve" smooth="yes"/>
      <point x="998" y="510"/>
      <point x="863" y="601"/>
      <point x="607" y="650" type="curve" smooth="yes"/>
      <point x="424" y="685"/>
      <point x="396" y="729"/>
      <point x="396" y="777" type="curve" smooth="yes"/>
      <point x="396" y="839"/>
      <point x="460" y="880"/>
      <point x="550" y="880" type="curve" smooth="yes"/>
      <point x="624" y="880"/>
      <point x="682" y="854"/>
      <point x="714" y="832" type="curve"/>
      <point x="744" y="694" type="line"/>
      <point x="956" y="694" type="line"/>
    </contour>
  </outline>
</glyph>
<glyph name="v" format="1">
  <advance width="1175"/>
  <unicode hex="0076"/>
  <outline>
    <contour>
      <point x="614" y="446" type="line"/>
      <point x="532" y="0" type="line"/>
      <point x="750" y="0" type="line"/>
      <point x="1127" y="1082" type="line"/>
      <point x="789" y="1082" type="line"/>
    </contour>
    <contour>
      <point x="390" y="1082" type="line"/>
      <point x="51" y="1082" type="line"/>
      <point x="428" y="0" type="line"/>
      <point x="646" y="0" type="line"/>
      <point x="567" y="446" type="line"/>
    </contour>
    <contour>
      <point x="789" y="1082" type="line"/>
      <point x="636" y="1082" type="line"/>
      <point x="636" y="882" type="line"/>
      <point x="789" y="852" type="line"/>
    </contour>
    <contour>
      <point x="1127" y="1082" type="line"/>
      <point x="947" y="852" type="line"/>
      <point x="1150" y="882" type="line"/>
      <point x="1150" y="1082" type="line"/>
    </contour>
    <contour>
      <point x="51" y="1082" type="line"/>
      <point x="28" y="1082" type="line"/>
      <point x="28" y="882" type="line"/>
      <point x="231" y="852" type="line"/>
    </contour>
    <contour>
      <point x="390" y="1082" type="line"/>
      <point x="390" y="852" type="line"/>
      <point x="543" y="882" type="line"/>
      <point x="543" y="1082" type="line"/>
    </contour>
  </outline>
</glyph>
<glyph name="yen" format="1">
  <advance width="1406"/>
  <unicode hex="00A5"/>
  <outline>
    <contour>
      <point x="1170" y="742" type="line"/>
      <point x="215" y="742" type="line"/>
      <point x="215" y="558" type="line"/>
      <point x="1170" y="558" type="line"/>
    </contour>
    <contour>
      <point x="1170" y="452" type="line"/>
      <point x="215" y="452" type="line"/>
      <point x="215" y="269" type="line"/>
      <point x="1170" y="269" type="line"/>
    </contour>
    <contour>
      <point x="635" y="696" type="line"/>
      <point x="674" y="547" type="line"/>
      <point x="849" y="547" type="line"/>
      <point x="1318" y="1456" type="line"/>
      <point x="967" y="1456" type="line"/>
    </contour>
    <contour>
      <point x="449" y="1456" type="line"/>
      <point x="98" y="1456" type="line"/>
      <point x="568" y="547" type="line"/>
      <point x="743" y="547" type="line"/>
      <point x="786" y="687" type="line"/>
    </contour>
    <contour>
      <point x="865" y="755" type="line"/>
      <point x="543" y="755" type="line"/>
      <point x="543" y="0" type="line"/>
      <point x="865" y="0" type="line"/>
    </contour>
    <contour>
      <point x="98" y="1456" type="line"/>
      <point x="35" y="1456" type="line"/>
      <point x="35" y="1256" type="line"/>
      <point x="278" y="1226" type="line"/>
    </contour>
    <contour>
      <point x="449" y="1456" type="line"/>
      <point x="449" y="1226" type="line"/>
      <point x="602" y="1256" type="line"/>
      <point x="602" y="1456" type="line"/>
    </contour>
    <contour>
      <point x="1318" y="1456" type="line"/>
      <point x="1138" y="1226" type="line"/>
      <point x="1381" y="1256" type="line"/>
      <point x="1381" y="1456" type="line"/>
    </contour>
    <contour>
      <point x="967" y="1456" type="line"/>
      <point x="814" y="1456" type="line"/>
      <point x="814" y="1256" type="line"/>
      <point x="967" y="1226" type="line"/>
    </contour>
    <contour>
      <point x="543" y="0" type="line"/>
      <point x="543" y="230" type="line"/>
      <point x="390" y="200" type="line"/>
      <point x="390" y="0" type="line"/>
    </contour>
    <contour>
      <point x="865" y="0" type="line"/>
      <point x="998" y="0" type="line"/>
      <point x="998" y="200" type="line"/>
      <point x="865" y="230" type="line"/>
    </contour>
  </outline>
</glyph>
<glyph name="section" format="1">
  <advance width="1247"/>
  <unicode hex="00A7"/>
  <outline>
    <contour>
      <point x="661" y="151" type="line"/>
      <point x="976" y="151"/>
      <point x="1181" y="267"/>
      <point x="1181" y="500" type="curve" smooth="yes"/>
      <point x="1181" y="738"/>
      <point x="1005" y="843"/>
      <point x="696" y="920" type="curve" smooth="yes"/>
      <point x="476" y="977"/>
      <point x="427" y="1008"/>
      <point x="427" y="1092" type="curve" smooth="yes"/>
      <point x="427" y="1161"/>
      <point x="487" y="1217"/>
      <point x="633" y="1217" type="curve" smooth="yes"/>
      <point x="770" y="1217"/>
      <point x="839" y="1144"/>
      <point x="839" y="1051" type="curve"/>
      <point x="1161" y="1051" type="line"/>
      <point x="1161" y="1325"/>
      <point x="960" y="1477"/>
      <point x="633" y="1477" type="curve" smooth="yes"/>
      <point x="312" y="1477"/>
      <point x="104" y="1324"/>
      <point x="104" y="1090" type="curve" smooth="yes"/>
      <point x="104" y="832"/>
      <point x="287" y="738"/>
      <point x="588" y="652" type="curve" smooth="yes"/>
      <point x="801" y="589"/>
      <point x="864" y="545"/>
      <point x="864" y="462" type="curve" smooth="yes"/>
      <point x="864" y="367"/>
      <point x="789" y="301"/>
      <point x="661" y="301" type="curve"/>
    </contour>
    <contour>
      <point x="588" y="878" type="line"/>
      <point x="283" y="878"/>
      <point x="84" y="754"/>
      <point x="84" y="528" type="curve" smooth="yes"/>
      <point x="84" y="290"/>
      <point x="266" y="188"/>
      <point x="567" y="109" type="curve" smooth="yes"/>
      <point x="779" y="51"/>
      <point x="839" y="12"/>
      <point x="839" y="-62" type="curve" smooth="yes"/>
      <point x="839" y="-135"/>
      <point x="769" y="-182"/>
      <point x="635" y="-182" type="curve" smooth="yes"/>
      <point x="522" y="-182"/>
      <point x="406" y="-153"/>
      <point x="406" y="-25" type="curve"/>
      <point x="84" y="-25" type="line"/>
      <point x="84" y="-344"/>
      <point x="360" y="-443"/>
      <point x="635" y="-443" type="curve" smooth="yes"/>
      <point x="953" y="-443"/>
      <point x="1161" y="-305"/>
      <point x="1161" y="-61" type="curve" smooth="yes"/>
      <point x="1161" y="198"/>
      <point x="986" y="294"/>
      <point x="675" y="376" type="curve" smooth="yes"/>
      <point x="454" y="442"/>
      <point x="406" y="474"/>
      <point x="406" y="568" type="curve" smooth="yes"/>
      <point x="406" y="659"/>
      <point x="460" y="725"/>
      <point x="588" y="725" type="curve"/>
    </contour>
  </outline>
</glyph>
<glyph name="logicalnot" format="1">
  <advance width="1090"/>
  <unicode hex="00AC"/>
  <outline>
    <contour>
      <point x="947" y="805" type="line"/>
      <point x="112" y="805" type="line"/>
      <point x="112" y="634" type="line"/>
      <point x="947" y="634" type="line"/>
    </contour>
    <contour>
      <point x="947" y="728" type="line"/>
      <point x="747" y="728" type="line"/>
      <point x="747" y="374" type="line"/>
      <point x="947" y="374" type="line"/>
    </contour>
  </outline>
</glyph>
<glyph name="paragraph" format="1">
  <advance width="1139"/>
  <unicode hex="00B6"/>
  <outline>
    <contour>
      <point x="944" y="0" type="line"/>
      <point x="944" y="1456" type="line"/>
      <point x="538" y="1456" type="line" smooth="yes"/>
      <point x="220" y="1456"/>
      <point x="46" y="1256"/>
      <point x="46" y="988" type="curve" smooth="yes"/>
      <point x="46" y="718"/>
      <point x="220" y="520"/>
      <point x="538" y="520" type="curve" smooth="yes"/>
      <point x="621" y="520" type="line"/>
      <point x="621" y="0" type="line"/>
    </contour>
    <contour>
      <point x="621" y="0" type="line"/>
      <point x="621" y="230" type="line"/>
      <point x="468" y="200" type="line"/>
      <point x="468" y="0" type="line"/>
    </contour>
    <contour>
      <point x="944" y="0" type="line"/>
      <point x="1097" y="0" type="line"/>
      <point x="1097" y="200" type="line"/>
      <point x="944" y="230" type="line"/>
    </contour>
    <contour>
      <point x="944" y="1456" type="line"/>
      <point x="944" y="1226" type="line"/>
      <point x="1097" y="1256" type="line"/>
      <point x="1097" y="1456" type="line"/>
    </contour>
  </outline>
</glyph>
<glyph name="guillemotright" format="1">
  <advance width="984"/>
  <unicode hex="00BB"/>
  <outline>
    <contour>
      <point x="49" y="151" type="line"/>
      <point x="249" y="151" type="line"/>
      <point x="524" y="541" type="line"/>
      <point x="524" y="554" type="line"/>
      <point x="286" y="555" type="line"/>
    </contour>
    <contour>
      <point x="49" y="950" type="line"/>
      <point x="286" y="546" type="line"/>
      <point x="524" y="547" type="line"/>
      <point x="524" y="560" type="line"/>
      <point x="249" y="950" type="line"/>
    </contour>
    <contour>
      <point x="476" y="151" type="line"/>
      <point x="676" y="151" type="line"/>
      <point x="951" y="541" type="line"/>
      <point x="951" y="554" type="line"/>
      <point x="713" y="555" type="line"/>
    </contour>
    <contour>
      <point x="476" y="950" type="line"/>
      <point x="713" y="546" type="line"/>
      <point x="951" y="547" type="line"/>
      <point x="951" y="560" type="line"/>
      <point x="676" y="950" type="line"/>
    </contour>
  </outline>
</glyph>
<glyph name="threequarters" format="1">
  <advance width="1616"/>
  <unicode hex="00BE"/>
  <outline>
    <contour>
      <point x="1303" y="1255" type="line"/>
      <point x="1151" y="1334" type="line"/>
      <point x="440" y="196" type="line"/>
      <point x="592" y="117" type="line"/>
    </contour>
    <contour>
      <point x="1603" y="302" type="line"/>
      <point x="1089" y="302" type="line"/>
      <point x="1267" y="518" type="line"/>
      <point x="1457" y="801" type="line"/>
      <point x="1288" y="801" type="line"/>
      <point x="863" y="271" type="line"/>
      <point x="878" y="134" type="line"/>
      <point x="1603" y="134" type="line"/>
    </contour>
    <contour>
      <point x="1510" y="801" type="line"/>
      <point x="1286" y="801" type="line"/>
      <point x="1286" y="0" type="line"/>
      <point x="1510" y="0" type="line"/>
    </contour>
    <contour>
      <point x="436" y="1051" type="line" smooth="yes"/>
      <point x="604" y="1051"/>
      <point x="717" y="1140"/>
      <point x="717" y="1250" type="curve" smooth="yes"/>
      <point x="717" y="1400"/>
      <point x="585" y="1479"/>
      <point x="384" y="1479" type="curve" smooth="yes"/>
      <point x="209" y="1479"/>
      <point x="67" y="1395"/>
      <point x="67" y="1244" type="curve"/>
      <point x="289" y="1244" type="line"/>
      <point x="289" y="1277"/>
      <point x="321" y="1313"/>
      <point x="391" y="1313" type="curve" smooth="yes"/>
      <point x="465" y="1313"/>
      <point x="494" y="1273"/>
      <point x="494" y="1230" type="curve" smooth="yes"/>
      <point x="494" y="1175"/>
      <point x="460" y="1140"/>
      <point x="375" y="1140" type="curve" smooth="yes"/>
      <point x="271" y="1140" type="line"/>
      <point x="271" y="1051" type="line"/>
    </contour>
    <contour>
      <point x="271" y="1100" type="line"/>
      <point x="271" y="1006" type="line"/>
      <point x="375" y="1006" type="line" smooth="yes"/>
      <point x="463" y="1006"/>
      <point x="509" y="967"/>
      <point x="509" y="908" type="curve" smooth="yes"/>
      <point x="509" y="850"/>
      <point x="461" y="823"/>
      <point x="395" y="823" type="curve" smooth="yes"/>
      <point x="316" y="823"/>
      <point x="277" y="854"/>
      <point x="277" y="907" type="curve"/>
      <point x="54" y="907" type="line"/>
      <point x="54" y="744"/>
      <point x="204" y="656"/>
      <point x="398" y="656" type="curve" smooth="yes"/>
      <point x="603" y="656"/>
      <point x="731" y="741"/>
      <point x="731" y="892" type="curve" smooth="yes"/>
      <point x="731" y="1025"/>
      <point x="622" y="1100"/>
      <point x="436" y="1100" type="curve" smooth="yes"/>
    </contour>
  </outline>
</glyph>
<glyph name="divide" format="1">
  <advance width="1129"/>
  <unicode hex="00F7"/>
  <outline>
    <contour>
      <point x="1089" y="807" type="line"/>
      <point x="50" y="807" type="line"/>
      <point x="50" y="563" type="line"/>
      <point x="1089" y="563" type="line"/>
    </contour>
    <contour>
      <point x="732" y="1206" type="line"/>
      <point x="409" y="1206" type="line"/>
      <point x="409" y="961" type="line"/>
      <point x="732" y="961" type="line"/>
    </contour>
    <contour>
      <point x="732" y="404" type="line"/>
      <point x="409" y="404" type="line"/>
      <point x="409" y="158" type="line"/>
      <point x="732" y="158" type="line"/>
    </contour>
  </outline>
</glyph>
<glyph name="oslash" format="1">
  <advance width="1188"/>
  <unicode hex="00F8"/>
  <outline>
    <contour>
      <point x="987" y="1219" type="line"/>
      <point x="815" y="1219" type="line"/>
      <point x="152" y="-145" type="line"/>
      <point x="324" y="-145" type="line"/>
    </contour>
    <contour>
      <point x="72" y="530" type="line" smooth="yes"/>
      <point x="72" y="214"/>
      <point x="256" y="-21"/>
      <point x="592" y="-21" type="curve" smooth="yes"/>
      <point x="927" y="-21"/>
      <point x="1110" y="214"/>
      <point x="1110" y="530" type="curve" smooth="yes"/>
      <point x="1110" y="551" type="line" smooth="yes"/>
      <point x="1110" y="867"/>
      <point x="927" y="1102"/>
      <point x="590" y="1102" type="curve" smooth="yes"/>
      <point x="256" y="1102"/>
      <point x="72" y="867"/>
      <point x="72" y="551" type="curve" smooth="yes"/>
    </contour>
    <contour>
      <point x="394" y="551" type="line" smooth="yes"/>
      <point x="394" y="709"/>
      <point x="442" y="842"/>
      <point x="590" y="842" type="curve" smooth="yes"/>
      <point x="741" y="842"/>
      <point x="788" y="709"/>
      <point x="788" y="551" type="curve" smooth="yes"/>
      <point x="788" y="530" type="line" smooth="yes"/>
      <point x="788" y="367"/>
      <point x="740" y="239"/>
      <point x="592" y="239" type="curve" smooth="yes"/>
      <point x="441" y="239"/>
      <point x="394" y="367"/>
      <point x="394" y="530" type="curve" smooth="yes"/>
    </contour>
  </outline>
</glyph>
<glyph name="Hbar" format="1">
  <advance width="1580"/>
  <unicode hex="0126"/>
  <outline>
    <contour>
      <point x="1510" y="1115" type="line"/>
      <point x="79" y="1115" type="line"/>
      <point x="79" y="962" type="line"/>
      <point x="1510" y="962" type="line"/>
    </contour>
    <contour>
      <point x="1165" y="846" type="line"/>
      <point x="412" y="846" type="line"/>
      <point x="412" y="586" type="line"/>
      <point x="1165" y="586" type="line"/>
    </contour>
    <contour>
      <point x="512" y="1456" type="line"/>
      <point x="189" y="1456" type="line"/>
      <point x="189" y="0" type="line"/>
      <point x="512" y="0" type="line"/>
    </contour>
    <contour>
      <point x="1391" y="1456" type="line"/>
      <point x="1069" y="1456" type="line"/>
      <point x="1069" y="0" type="line"/>
      <point x="1391" y="0" type="line"/>
    </contour>
    <contour>
      <point x="1391" y="1456" type="line"/>
      <point x="1391" y="1226" type="line"/>
      <point x="1544" y="1256" type="line"/>
      <point x="1544" y="1456" type="line"/>
    </contour>
    <contour>
      <point x="1069" y="1456" type="line"/>
      <point x="916" y="1456" type="line"/>
      <point x="916" y="1256" type="line"/>
      <point x="1069" y="1226" type="line"/>
    </contour>
    <contour>
      <point x="1069" y="0" type="line"/>
      <point x="1069" y="230" type="line"/>
      <point x="916" y="200" type="line"/>
      <point x="916" y="0" type="line"/>
    </contour>
    <contour>
      <point x="1391" y="0" type="line"/>
      <point x="1544" y="0" type="line"/>
      <point x="1544" y="200" type="line"/>
      <point x="1391" y="230" type="line"/>
    </contour>
    <contour>
      <point x="512" y="0" type="line"/>
      <point x="665" y="0" type="line"/>
      <point x="665" y="200" type="line"/>
      <point x="512" y="230" type="line"/>
    </contour>
    <contour>
      <point x="189" y="0" type="line"/>
      <point x="189" y="230" type="line"/>
      <point x="36" y="200" type="line"/>
      <point x="36" y="0" type="line"/>
    </contour>
    <contour>
      <point x="189" y="1456" type="line"/>
      <point x="36" y="1456" type="line"/>
      <point x="36" y="1256" type="line"/>
      <point x="189" y="1226" type="line"/>
    </contour>
    <contour>
      <point x="512" y="1456" type="line"/>
      <point x="512" y="1226" type="line"/>
      <point x="665" y="1256" type="line"/>
      <point x="665" y="1456" type="line"/>
    </contour>
  </outline>
</glyph>
<glyph name="Lslash" format="1">
  <advance width="1189"/>
  <unicode hex="0141"/>
  <outline>
    <contour>
      <point x="741" y="967" type="line"/>
      <point x="70" y="780" type="line"/>
      <point x="70" y="572" type="line"/>
      <point x="741" y="759" type="line"/>
    </contour>
    <contour>
      <point x="1161" y="260" type="line"/>
      <point x="419" y="260" type="line"/>
      <point x="419" y="0" type="line"/>
      <point x="1161" y="0" type="line"/>
    </contour>
    <contour>
      <point x="527" y="1456" type="line"/>
      <point x="204" y="1456" type="line"/>
      <point x="204" y="0" type="line"/>
      <point x="527" y="0" type="line"/>
    </contour>
    <contour>
      <point x="527" y="1456" type="line"/>
      <point x="527" y="1226" type="line"/>
      <point x="680" y="1256" type="line"/>
      <point x="680" y="1456" type="line"/>
    </contour>
    <contour>
      <point x="204" y="0" type="line"/>
      <point x="204" y="230" type="line"/>
      <point x="51" y="200" type="line"/>
      <point x="51" y="0" type="line"/>
    </contour>
    <contour>
      <point x="204" y="1456" type="line"/>
      <point x="51" y="1456" type="line"/>
      <point x="51" y="1256" type="line"/>
      <point x="204" y="1226" type="line"/>
    </contour>
    <contour>
      <point x="1161" y="0" type="line"/>
      <point x="1161" y="453" type="line"/>
      <point x="921" y="453" type="line"/>
      <point x="891" y="0" type="line"/>
    </contour>
  </outline>
</glyph>
<glyph name="Eng" format="1">
  <advance width="1593"/>
  <unicode hex="014A"/>
  <outline>
    <contour>
      <point x="221" y="1456" type="line"/>
      <point x="221" y="0" type="line"/>
      <point x="544" y="0" type="line"/>
      <point x="544" y="1456" type="line"/>
    </contour>
    <contour>
      <point x="317" y="1335" type="line"/>
      <point x="1101" y="0" type="line"/>
      <point x="1329" y="121" type="line"/>
      <point x="544" y="1456" type="line"/>
    </contour>
    <contour>
      <point x="1101" y="1456" type="line"/>
      <point x="1101" y="-15" type="line" smooth="yes"/>
      <point x="1101" y="-122"/>
      <point x="1058" y="-177"/>
      <point x="982" y="-177" type="curve" smooth="yes"/>
      <point x="939" y="-177"/>
      <point x="915" y="-173"/>
      <point x="882" y="-165" type="curve"/>
      <point x="868" y="-420" type="line"/>
      <point x="923" y="-433"/>
      <point x="968" y="-437"/>
      <point x="1023" y="-437" type="curve" smooth="yes"/>
      <point x="1272" y="-437"/>
      <point x="1423" y="-288"/>
      <point x="1423" y="-15" type="curve" smooth="yes"/>
      <point x="1423" y="1456" type="line"/>
    </contour>
    <contour>
      <point x="1101" y="1456" type="line"/>
      <point x="948" y="1456" type="line"/>
      <point x="948" y="1256" type="line"/>
      <point x="1101" y="1226" type="line"/>
    </contour>
    <contour>
      <point x="221" y="0" type="line"/>
      <point x="221" y="230" type="line"/>
      <point x="68" y="200" type="line"/>
      <point x="68" y="0" type="line"/>
    </contour>
    <contour>
      <point x="544" y="0" type="line"/>
      <point x="697" y="0" type="line"/>
      <point x="697" y="200" type="line"/>
      <point x="544" y="230" type="line"/>
    </contour>
    <contour>
      <point x="221" y="1456" type="line"/>
      <point x="68" y="1456" type="line"/>
      <point x="68" y="1256" type="line"/>
      <point x="221" y="1226" type="line"/>
    </contour>
    <contour>
      <point x="1423" y="1456" type="line"/>
      <point x="1423" y="1226" type="line"/>
      <point x="1576" y="1256" type="line"/>
      <point x="1576" y="1456" type="line"/>
    </contour>
  </outline>
</glyph>
<glyph name="eng" format="1">
  <advance width="1289"/>
  <unicode hex="014B"/>
  <outline>
    <contour>
      <point x="549" y="851" type="line"/>
      <point x="529" y="1082" type="line"/>
      <point x="227" y="1082" type="line"/>
      <point x="227" y="0" type="line"/>
      <point x="549" y="0" type="line"/>
    </contour>
    <contour>
      <point x="488" y="578" type="line"/>
      <point x="488" y="729"/>
      <point x="571" y="842"/>
      <point x="727" y="842" type="curve" smooth="yes"/>
      <point x="815" y="842"/>
      <point x="867" y="797"/>
      <point x="867" y="652" type="curve" smooth="yes"/>
      <point x="867" y="-15" type="line" smooth="yes"/>
      <point x="867" y="-122"/>
      <point x="825" y="-177"/>
      <point x="749" y="-177" type="curve" smooth="yes"/>
      <point x="706" y="-177"/>
      <point x="682" y="-173"/>
      <point x="649" y="-165" type="curve"/>
      <point x="635" y="-420" type="line"/>
      <point x="690" y="-433"/>
      <point x="735" y="-437"/>
      <point x="790" y="-437" type="curve" smooth="yes"/>
      <point x="1039" y="-437"/>
      <point x="1190" y="-288"/>
      <point x="1190" y="-15" type="curve" smooth="yes"/>
      <point x="1190" y="651" type="line" smooth="yes"/>
      <point x="1190" y="980"/>
      <point x="1051" y="1102"/>
      <point x="849" y="1102" type="curve" smooth="yes"/>
      <point x="609" y="1102"/>
      <point x="449" y="880"/>
      <point x="449" y="576" type="curve"/>
    </contour>
    <contour>
      <point x="549" y="0" type="line"/>
      <point x="682" y="0" type="line"/>
      <point x="682" y="200" type="line"/>
      <point x="549" y="230" type="line"/>
    </contour>
    <contour>
      <point x="227" y="1082" type="line"/>
      <point x="74" y="1082" type="line"/>
      <point x="74" y="882" type="line"/>
      <point x="227" y="852" type="line"/>
    </contour>
    <contour>
      <point x="227" y="0" type="line"/>
      <point x="227" y="230" type="line"/>
      <point x="94" y="200" type="line"/>
      <point x="94" y="0" type="line"/>
    </contour>
  </outline>
</glyph>
<glyph name="uni02F3" format="1">
  <advance width="448"/>
  <unicode hex="02F3"/>
  <outline>
    <contour>
      <point x="38" y="-265" type="curve" smooth="yes"/>
      <point x="38" y="-363"/>
      <point x="122" y="-435"/>
      <point x="230" y="-435" type="curve" smooth="yes"/>
      <point x="337" y="-435"/>
      <point x="419" y="-364"/>
      <point x="419" y="-265" type="curve" smooth="yes"/>
      <point x="419" y="-167"/>
      <point x="337" y="-92"/>
      <point x="230" y="-92" type="curve" smooth="yes"/>
      <point x="122" y="-92"/>
      <point x="38" y="-167"/>
    </contour>
    <contour>
      <point x="159" y="-265" type="curve" smooth="yes"/>
      <point x="159" y="-222"/>
      <point x="189" y="-193"/>
      <point x="230" y="-193" type="curve" smooth="yes"/>
      <point x="270" y="-193"/>
      <point x="297" y="-222"/>
      <point x="297" y="-265" type="curve" smooth="yes"/>
      <point x="297" y="-306"/>
      <point x="270" y="-335"/>
      <point x="230" y="-335" type="curve" smooth="yes"/>
      <point x="189" y="-335"/>
      <point x="159" y="-306"/>
    </contour>
  </outline>
</glyph>
<glyph name="alpha" format="1">
  <advance width="1217"/>
  <unicode hex="03B1"/>
  <outline>
    <contour>
      <point x="97" y="518" type="line" smooth="yes"/>
      <point x="97" y="203"/>
      <point x="245" y="-21"/>
      <point x="518" y="-21" type="curve" smooth="yes"/>
      <point x="754" y="-21"/>
      <point x="850" y="217"/>
      <point x="889" y="510" type="curve"/>
      <point x="889" y="535" type="line"/>
      <point x="850" y="848"/>
      <point x="754" y="1102"/>
      <point x="520" y="1102" type="curve" smooth="yes"/>
      <point x="245" y="1102"/>
      <point x="97" y="868"/>
      <point x="97" y="539" type="curve" smooth="yes"/>
    </contour>
    <contour>
      <point x="420" y="539" type="line" smooth="yes"/>
      <point x="420" y="707"/>
      <point x="468" y="842"/>
      <point x="601" y="842" type="curve" smooth="yes"/>
      <point x="734" y="842"/>
      <point x="789" y="738"/>
      <point x="789" y="562" type="curve" smooth="yes"/>
      <point x="789" y="483" type="line" smooth="yes"/>
      <point x="789" y="329"/>
      <point x="734" y="239"/>
      <point x="599" y="239" type="curve" smooth="yes"/>
      <point x="463" y="239"/>
      <point x="420" y="356"/>
      <point x="420" y="518" type="curve" smooth="yes"/>
    </contour>
    <contour>
      <point x="789" y="1081" type="line"/>
      <point x="748" y="852" type="line"/>
      <point x="748" y="370" type="line" smooth="yes"/>
      <point x="748" y="108"/>
      <point x="865" y="-21"/>
      <point x="1058" y="-21" type="curve" smooth="yes"/>
      <point x="1104" y="-21"/>
      <point x="1139" y="-18"/>
      <point x="1183" y="0" type="curve"/>
      <point x="1158" y="244" type="line"/>
      <point x="1154" y="242"/>
      <point x="1149" y="241"/>
      <point x="1140" y="241" type="curve" smooth="yes"/>
      <point x="1094" y="241"/>
      <point x="1070" y="274"/>
      <point x="1070" y="370" type="curve" smooth="yes"/>
      <point x="1070" y="1081" type="line"/>
    </contour>
  </outline>
</glyph>
<glyph name="delta" format="1">
  <advance width="1153"/>
  <unicode hex="03B4"/>
  <outline>
    <contour>
      <point x="182" y="1244" type="curve" smooth="yes"/>
      <point x="182" y="1122"/>
      <point x="256" y="1037"/>
      <point x="364" y="976" type="curve"/>
      <point x="360" y="965" type="line"/>
      <point x="194" y="923"/>
      <point x="58" y="752"/>
      <point x="58" y="530" type="curve" smooth="yes"/>
      <point x="58" y="510" type="line" smooth="yes"/>
      <point x="58" y="209"/>
      <point x="250" y="-20"/>
      <point x="584" y="-20" type="curve" smooth="yes"/>
      <point x="915" y="-20"/>
      <point x="1107" y="218"/>
      <point x="1107" y="530" type="curve" smooth="yes"/>
      <point x="1107" y="550" type="line" smooth="yes"/>
      <point x="1107" y="834"/>
      <point x="939" y="1020"/>
      <point x="619" y="1132" type="curve" smooth="yes"/>
      <point x="502" y="1173"/>
      <point x="484" y="1217"/>
      <point x="484" y="1251" type="curve" smooth="yes"/>
      <point x="484" y="1304"/>
      <point x="543" y="1335"/>
      <point x="639" y="1335" type="curve" smooth="yes"/>
      <point x="737" y="1335"/>
      <point x="829" y="1304"/>
      <point x="882" y="1282" type="curve"/>
      <point x="926" y="1494" type="line"/>
      <point x="826" y="1544"/>
      <point x="728" y="1575"/>
      <point x="623" y="1575" type="curve" smooth="yes"/>
      <point x="349" y="1575"/>
      <point x="182" y="1453"/>
    </contour>
    <contour>
      <point x="379" y="568" type="line" smooth="yes"/>
      <point x="379" y="724"/>
      <point x="444" y="863"/>
      <point x="584" y="863" type="curve"/>
      <point x="709" y="837"/>
      <point x="786" y="695"/>
      <point x="786" y="568" type="curve" smooth="yes"/>
      <point x="786" y="548" type="line" smooth="yes"/>
      <point x="786" y="380"/>
      <point x="724" y="239"/>
      <point x="584" y="239" type="curve" smooth="yes"/>
      <point x="442" y="239"/>
      <point x="379" y="380"/>
      <point x="379" y="548" type="curve" smooth="yes"/>
    </contour>
  </outline>
</glyph>
<glyph name="uni03D2" format="1">
  <advance width="1294"/>
  <unicode hex="03D2"/>
  <outline>
    <contour>
      <point x="820" y="688" type="line"/>
      <point x="498" y="688" type="line"/>
      <point x="498" y="0" type="line"/>
      <point x="820" y="0" type="line"/>
    </contour>
    <contour>
      <point x="685" y="820" type="line"/>
      <point x="611" y="425" type="line"/>
      <point x="819" y="425" type="line"/>
      <point x="1102" y="1108" type="line" smooth="yes"/>
      <point x="1125" y="1164"/>
      <point x="1161" y="1218"/>
      <point x="1216" y="1218" type="curve" smooth="yes"/>
      <point x="1231" y="1218"/>
      <point x="1266" y="1216"/>
      <point x="1270" y="1215" type="curve"/>
      <point x="1295" y="1471" type="line"/>
      <point x="1267" y="1483"/>
      <point x="1231" y="1487"/>
      <point x="1194" y="1487" type="curve" smooth="yes"/>
      <point x="996" y="1487"/>
      <point x="907" y="1404"/>
      <point x="823" y="1184" type="curve" smooth="yes"/>
    </contour>
    <contour>
      <point x="503" y="1194" type="line" smooth="yes"/>
      <point x="420" y="1415"/>
      <point x="331" y="1487"/>
      <point x="133" y="1487" type="curve" smooth="yes"/>
      <point x="95" y="1487"/>
      <point x="59" y="1483"/>
      <point x="32" y="1471" type="curve"/>
      <point x="56" y="1215" type="line"/>
      <point x="60" y="1216"/>
      <point x="95" y="1218"/>
      <point x="110" y="1218" type="curve" smooth="yes"/>
      <point x="165" y="1218"/>
      <point x="201" y="1164"/>
      <point x="225" y="1108" type="curve" smooth="yes"/>
      <point x="507" y="425" type="line"/>
      <point x="715" y="425" type="line"/>
      <point x="642" y="820" type="line"/>
    </contour>
  </outline>
</glyph>
<glyph name="uni040A" format="1">
  <advance width="2240"/>
  <unicode hex="040A"/>
  <outline>
    <contour>
      <point x="1190" y="846" type="line"/>
      <point x="437" y="846" type="line"/>
      <point x="437" y="586" type="line"/>
      <point x="1190" y="586" type="line"/>
    </contour>
    <contour>
      <point x="537" y="1456" type="line"/>
      <point x="214" y="1456" type="line"/>
      <point x="214" y="0" type="line"/>
      <point x="537" y="0" type="line"/>
    </contour>
    <contour>
      <point x="1301" y="977" type="line"/>
      <point x="1301" y="717" type="line"/>
      <point x="1629" y="717" type="line" smooth="yes"/>
      <point x="1790" y="717"/>
      <point x="1872" y="609"/>
      <point x="1872" y="491" type="curve" smooth="yes"/>
      <point x="1872" y="369"/>
      <point x="1790" y="260"/>
      <point x="1629" y="260" type="curve" smooth="yes"/>
      <point x="1415" y="260" type="line"/>
      <point x="1415" y="1456" type="line"/>
      <point x="1093" y="1456" type="line"/>
      <point x="1093" y="0" type="line"/>
      <point x="1629" y="0" type="line" smooth="yes"/>
      <point x="1976" y="0"/>
      <point x="2194" y="206"/>
      <point x="2194" y="489" type="curve" smooth="yes"/>
      <point x="2194" y="771"/>
      <point x="1976" y="977"/>
      <point x="1629" y="977" type="curve" smooth="yes"/>
    </contour>
    <contour>
      <point x="1415" y="1456" type="line"/>
      <point x="1415" y="1226" type="line"/>
      <point x="1568" y="1256" type="line"/>
      <point x="1568" y="1456" type="line"/>
    </contour>
    <contour>
      <point x="1093" y="1456" type="line"/>
      <point x="940" y="1456" type="line"/>
      <point x="940" y="1256" type="line"/>
      <point x="1093" y="1226" type="line"/>
    </contour>
    <contour>
      <point x="537" y="0" type="line"/>
      <point x="690" y="0" type="line"/>
      <point x="690" y="200" type="line"/>
      <point x="537" y="230" type="line"/>
    </contour>
    <contour>
      <point x="214" y="0" type="line"/>
      <point x="214" y="230" type="line"/>
      <point x="61" y="200" type="line"/>
      <point x="61" y="0" type="line"/>
    </contour>
    <contour>
      <point x="214" y="1456" type="line"/>
      <point x="61" y="1456" type="line"/>
      <point x="61" y="1256" type="line"/>
      <point x="214" y="1226" type="line"/>
    </contour>
    <contour>
      <point x="537" y="1456" type="line"/>
      <point x="537" y="1226" type="line"/>
      <point x="690" y="1256" type="line"/>
      <point x="690" y="1456" type="line"/>
    </contour>
    <contour>
      <point x="1093" y="230" type="line"/>
      <point x="940" y="200" type="line"/>
      <point x="940" y="0" type="line"/>
      <point x="1093" y="0" type="line"/>
    </contour>
  </outline>
</glyph>
<glyph name="uni042B" format="1">
  <advance width="1947"/>
  <unicode hex="042B"/>
  <outline>
    <contour>
      <point x="397" y="947" type="line"/>
      <point x="397" y="687" type="line"/>
      <point x="726" y="687" type="line" smooth="yes"/>
      <point x="887" y="687"/>
      <point x="969" y="599"/>
      <point x="969" y="481" type="curve" smooth="yes"/>
      <point x="969" y="359"/>
      <point x="887" y="260"/>
      <point x="726" y="260" type="curve" smooth="yes"/>
      <point x="512" y="260" type="line"/>
      <point x="512" y="1456" type="line"/>
      <point x="189" y="1456" type="line"/>
      <point x="189" y="0" type="line"/>
      <point x="726" y="0" type="line" smooth="yes"/>
      <point x="1073" y="0"/>
      <point x="1291" y="196"/>
      <point x="1291" y="479" type="curve" smooth="yes"/>
      <point x="1291" y="761"/>
      <point x="1073" y="947"/>
      <point x="726" y="947" type="curve" smooth="yes"/>
    </contour>
    <contour>
      <point x="512" y="1456" type="line"/>
      <point x="512" y="1226" type="line"/>
      <point x="665" y="1256" type="line"/>
      <point x="665" y="1456" type="line"/>
    </contour>
    <contour>
      <point x="189" y="1456" type="line"/>
      <point x="36" y="1456" type="line"/>
      <point x="36" y="1256" type="line"/>
      <point x="189" y="1226" type="line"/>
    </contour>
    <contour>
      <point x="189" y="0" type="line"/>
      <point x="189" y="230" type="line"/>
      <point x="36" y="200" type="line"/>
      <point x="36" y="0" type="line"/>
    </contour>
    <contour>
      <point x="1754" y="1456" type="line"/>
      <point x="1432" y="1456" type="line"/>
      <point x="1432" y="0" type="line"/>
      <point x="1754" y="0" type="line"/>
    </contour>
    <contour>
      <point x="1432" y="0" type="line"/>
      <point x="1432" y="230" type="line"/>
      <point x="1279" y="200" type="line"/>
      <point x="1279" y="0" type="line"/>
    </contour>
    <contour>
      <point x="1754" y="0" type="line"/>
      <point x="1907" y="0" type="line"/>
      <point x="1907" y="200" type="line"/>
      <point x="1754" y="230" type="line"/>
    </contour>
    <contour>
      <point x="1754" y="1456" type="line"/>
      <point x="1754" y="1226" type="line"/>
      <point x="1907" y="1256" type="line"/>
      <point x="1907" y="1456" type="line"/>
    </contour>
    <contour>
      <point x="1432" y="1456" type="line"/>
      <point x="1279" y="1456" type="line"/>
      <point x="1279" y="1256" type="line"/>
      <point x="1432" y="1226" type="line"/>
    </contour>
  </outline>
</glyph>
<glyph name="uni0433" format="1">
  <advance width="1093"/>
  <unicode hex="0433"/>
  <outline>
    <contour>
      <point x="964" y="1082" type="line"/>
      <point x="209" y="1082" type="line"/>
      <point x="209" y="0" type="line"/>
      <point x="531" y="0" type="line"/>
      <point x="531" y="822" type="line"/>
      <point x="964" y="822" type="line"/>
    </contour>
    <contour>
      <point x="209" y="230" type="line"/>
      <point x="56" y="200" type="line"/>
      <point x="56" y="0" type="line"/>
      <point x="209" y="0" type="line"/>
    </contour>
    <contour>
      <point x="1025" y="1082" type="line"/>
      <point x="795" y="1082" type="line"/>
      <point x="825" y="649" type="line"/>
      <point x="1025" y="649" type="line"/>
    </contour>
    <contour>
      <point x="209" y="1082" type="line"/>
      <point x="56" y="1082" type="line"/>
      <point x="56" y="882" type="line"/>
      <point x="209" y="852" type="line"/>
    </contour>
    <contour>
      <point x="684" y="200" type="line"/>
      <point x="531" y="230" type="line"/>
      <point x="531" y="0" type="line"/>
      <point x="684" y="0" type="line"/>
    </contour>
  </outline>
</glyph>
<glyph name="uni043C" format="1">
  <advance width="1777"/>
  <unicode hex="043C"/>
  <outline>
    <contour>
      <point x="893" y="372" type="line"/>
      <point x="639" y="1082" type="line"/>
      <point x="385" y="1082" type="line"/>
      <point x="786" y="0" type="line"/>
      <point x="1001" y="0" type="line"/>
      <point x="1403" y="1082" type="line"/>
      <point x="1150" y="1082" type="line"/>
    </contour>
    <contour>
      <point x="565" y="1082" type="line"/>
      <point x="243" y="1082" type="line"/>
      <point x="243" y="0" type="line"/>
      <point x="565" y="0" type="line"/>
    </contour>
    <contour>
      <point x="1232" y="0" type="line"/>
      <point x="1554" y="0" type="line"/>
      <point x="1554" y="1082" type="line"/>
      <point x="1232" y="1082" type="line"/>
    </contour>
    <contour>
      <point x="1232" y="0" type="line"/>
      <point x="1232" y="230" type="line"/>
      <point x="1139" y="200" type="line"/>
      <point x="1139" y="0" type="line"/>
    </contour>
    <contour>
      <point x="1554" y="0" type="line"/>
      <point x="1707" y="0" type="line"/>
      <point x="1707" y="200" type="line"/>
      <point x="1554" y="230" type="line"/>
    </contour>
    <contour>
      <point x="1554" y="1082" type="line"/>
      <point x="1554" y="852" type="line"/>
      <point x="1707" y="882" type="line"/>
      <point x="1707" y="1082" type="line"/>
    </contour>
    <contour>
      <point x="565" y="0" type="line"/>
      <point x="658" y="0" type="line"/>
      <point x="658" y="200" type="line"/>
      <point x="565" y="230" type="line"/>
    </contour>
    <contour>
      <point x="243" y="0" type="line"/>
      <point x="243" y="230" type="line"/>
      <point x="90" y="200" type="line"/>
      <point x="90" y="0" type="line"/>
    </contour>
    <contour>
      <point x="243" y="1082" type="line"/>
      <point x="90" y="1082" type="line"/>
      <point x="90" y="882" type="line"/>
      <point x="243" y="852" type="line"/>
    </contour>
  </outline>
</glyph>
<glyph name="uni043F" format="1">
  <advance width="1424"/>
  <unicode hex="043F"/>
  <outline>
    <contour>
      <point x="971" y="1082" type="line"/>
      <point x="457" y="1082" type="line"/>
      <point x="457" y="822" type="line"/>
      <point x="971" y="822" type="line"/>
    </contour>
    <contour>
      <point x="557" y="1082" type="line"/>
      <point x="235" y="1082" type="line"/>
      <point x="235" y="0" type="line"/>
      <point x="557" y="0" type="line"/>
    </contour>
    <contour>
      <point x="1198" y="1082" type="line"/>
      <point x="875" y="1082" type="line"/>
      <point x="875" y="0" type="line"/>
      <point x="1198" y="0" type="line"/>
    </contour>
    <contour>
      <point x="1198" y="1082" type="line"/>
      <point x="1198" y="852" type="line"/>
      <point x="1351" y="882" type="line"/>
      <point x="1351" y="1082" type="line"/>
    </contour>
    <contour>
      <point x="875" y="0" type="line"/>
      <point x="875" y="230" type="line"/>
      <point x="762" y="200" type="line"/>
      <point x="762" y="0" type="line"/>
    </contour>
    <contour>
      <point x="1198" y="0" type="line"/>
      <point x="1351" y="0" type="line"/>
      <point x="1351" y="200" type="line"/>
      <point x="1198" y="230" type="line"/>
    </contour>
    <contour>
      <point x="557" y="0" type="line"/>
      <point x="670" y="0" type="line"/>
      <point x="670" y="200" type="line"/>
      <point x="557" y="230" type="line"/>
    </contour>
    <contour>
      <point x="235" y="0" type="line"/>
      <point x="235" y="230" type="line"/>
      <point x="82" y="200" type="line"/>
      <point x="82" y="0" type="line"/>
    </contour>
    <contour>
      <point x="235" y="1082" type="line"/>
      <point x="82" y="1082" type="line"/>
      <point x="82" y="882" type="line"/>
      <point x="235" y="852" type="line"/>
    </contour>
  </outline>
</glyph>
<glyph name="uni0444" format="1">
  <advance width="1499"/>
  <unicode hex="0444"/>
  <outline>
    <contour>
      <point x="1454" y="539" type="line" smooth="yes"/>
      <point x="1454" y="868"/>
      <point x="1313" y="1102"/>
      <point x="1051" y="1102" type="curve" smooth="yes"/>
      <point x="803" y="1102"/>
      <point x="702" y="848"/>
      <point x="662" y="535" type="curve"/>
      <point x="662" y="508" type="line"/>
      <point x="702" y="216"/>
      <point x="803" y="-21"/>
      <point x="1053" y="-21" type="curve" smooth="yes"/>
      <point x="1313" y="-21"/>
      <point x="1454" y="203"/>
      <point x="1454" y="518" type="curve" smooth="yes"/>
    </contour>
    <contour>
      <point x="1131" y="518" type="line" smooth="yes"/>
      <point x="1131" y="356"/>
      <point x="1092" y="239"/>
      <point x="972" y="239" type="curve" smooth="yes"/>
      <point x="823" y="239"/>
      <point x="762" y="328"/>
      <point x="762" y="480" type="curve" smooth="yes"/>
      <point x="762" y="562" type="line" smooth="yes"/>
      <point x="762" y="738"/>
      <point x="823" y="842"/>
      <point x="970" y="842" type="curve" smooth="yes"/>
      <point x="1088" y="842"/>
      <point x="1131" y="707"/>
      <point x="1131" y="539" type="curve" smooth="yes"/>
    </contour>
    <contour>
      <point x="69" y="518" type="line" smooth="yes"/>
      <point x="69" y="203"/>
      <point x="210" y="-21"/>
      <point x="469" y="-21" type="curve" smooth="yes"/>
      <point x="719" y="-21"/>
      <point x="820" y="217"/>
      <point x="861" y="510" type="curve"/>
      <point x="861" y="535" type="line"/>
      <point x="820" y="848"/>
      <point x="719" y="1102"/>
      <point x="471" y="1102" type="curve" smooth="yes"/>
      <point x="210" y="1102"/>
      <point x="69" y="868"/>
      <point x="69" y="539" type="curve" smooth="yes"/>
    </contour>
    <contour>
      <point x="391" y="539" type="line" smooth="yes"/>
      <point x="391" y="707"/>
      <point x="434" y="842"/>
      <point x="553" y="842" type="curve" smooth="yes"/>
      <point x="700" y="842"/>
      <point x="761" y="738"/>
      <point x="761" y="562" type="curve" smooth="yes"/>
      <point x="761" y="483" type="line" smooth="yes"/>
      <point x="761" y="329"/>
      <point x="700" y="239"/>
      <point x="551" y="239" type="curve" smooth="yes"/>
      <point x="430" y="239"/>
      <point x="391" y="356"/>
      <point x="391" y="518" type="curve" smooth="yes"/>
    </contour>
    <contour>
      <point x="600" y="-416" type="line"/>
      <point x="922" y="-416" type="line"/>
      <point x="922" y="1560" type="line"/>
      <point x="600" y="1560" type="line"/>
    </contour>
    <contour>
      <point x="600" y="1560" type="line"/>
      <point x="447" y="1560" type="line"/>
      <point x="447" y="1360" type="line"/>
      <point x="600" y="1330" type="line"/>
    </contour>
    <contour>
      <point x="600" y="-416" type="line"/>
      <point x="600" y="-186" type="line"/>
      <point x="447" y="-216" type="line"/>
      <point x="447" y="-416" type="line"/>
    </contour>
    <contour>
      <point x="922" y="-416" type="line"/>
      <point x="1075" y="-416" type="line"/>
      <point x="1075" y="-216" type="line"/>
      <point x="922" y="-186" type="line"/>
    </contour>
  </outline>
</glyph>
<glyph name="uni0448" format="1">
  <advance width="1946"/>
  <unicode hex="0448"/>
  <outline>
    <contour>
      <point x="235" y="1082" type="line"/>
      <point x="235" y="0" type="line"/>
      <point x="1736" y="0" type="line"/>
      <point x="1736" y="1082" type="line"/>
      <point x="1414" y="1082" type="line"/>
      <point x="1414" y="260" type="line"/>
      <point x="1147" y="260" type="line"/>
      <point x="1147" y="1082" type="line"/>
      <point x="824" y="1082" type="line"/>
      <point x="824" y="260" type="line"/>
      <point x="557" y="260" type="line"/>
      <point x="557" y="1082" type="line"/>
    </contour>
    <contour>
      <point x="557" y="1082" type="line"/>
      <point x="557" y="852" type="line"/>
      <point x="710" y="882" type="line"/>
      <point x="710" y="1082" type="line"/>
    </contour>
    <contour>
      <point x="1414" y="1082" type="line"/>
      <point x="1261" y="1082" type="line"/>
      <point x="1261" y="882" type="line"/>
      <point x="1414" y="852" type="line"/>
    </contour>
    <contour>
      <point x="1736" y="0" type="line"/>
      <point x="1889" y="0" type="line"/>
      <point x="1889" y="200" type="line"/>
      <point x="1736" y="230" type="line"/>
    </contour>
    <contour>
      <point x="1736" y="1082" type="line"/>
      <point x="1736" y="852" type="line"/>
      <point x="1889" y="882" type="line"/>
      <point x="1889" y="1082" type="line"/>
    </contour>
    <contour>
      <point x="235" y="1082" type="line"/>
      <point x="82" y="1082" type="line"/>
      <point x="82" y="882" type="line"/>
      <point x="235" y="852" type="line"/>
    </contour>
    <contour>
      <point x="235" y="0" type="line"/>
      <point x="235" y="230" type="line"/>
      <point x="82" y="200" type="line"/>
      <point x="82" y="0" type="line"/>
    </contour>
  </outline>
</glyph>
<glyph name="uni0467" format="1">
  <advance width="1267"/>
  <unicode hex="0467"/>
  <outline>
    <contour>
      <point x="601" y="635" type="line"/>
      <point x="703" y="1082" type="line"/>
      <point x="464" y="1082" type="line"/>
      <point x="66" y="0" type="line"/>
      <point x="395" y="0" type="line"/>
    </contour>
    <contour>
      <point x="876" y="0" type="line"/>
      <point x="1204" y="0" type="line"/>
      <point x="807" y="1082" type="line"/>
      <point x="568" y="1082" type="line"/>
      <point x="668" y="635" type="line"/>
    </contour>
    <contour>
      <point x="994" y="513" type="line"/>
      <point x="281" y="513" type="line"/>
      <point x="281" y="335" type="line"/>
      <point x="994" y="335" type="line"/>
    </contour>
    <contour>
      <point x="722" y="350" type="line"/>
      <point x="534" y="350" type="line"/>
      <point x="534" y="0" type="line"/>
      <point x="722" y="0" type="line"/>
    </contour>
    <contour>
      <point x="66" y="0" type="line"/>
      <point x="246" y="230" type="line"/>
      <point x="53" y="200" type="line"/>
      <point x="53" y="0" type="line"/>
    </contour>
    <contour>
      <point x="1204" y="0" type="line"/>
      <point x="1217" y="0" type="line"/>
      <point x="1217" y="200" type="line"/>
      <point x="1024" y="230" type="line"/>
    </contour>
  </outline>
</glyph>
<glyph name="uni047C" format="1">
  <advance width="1870"/>
  <unicode hex="047C"/>
  <outline>
    <contour>
      <point x="1406" y="1698" type="line" smooth="yes"/>
      <point x="1200" y="1698"/>
      <point x="1066" y="1818"/>
      <point x="913" y="1818" type="curve" smooth="yes"/>
      <point x="769" y="1818"/>
      <point x="682" y="1750"/>
      <point x="682" y="1601" type="curve" smooth="yes"/>
      <point x="682" y="1564" type="line"/>
      <point x="814" y="1564" type="line"/>
      <point x="814" y="1582" type="line" smooth="yes"/>
      <point x="814" y="1654"/>
      <point x="856" y="1684"/>
      <point x="916" y="1684" type="curve" smooth="yes"/>
      <point x="1027" y="1684"/>
      <point x="1179" y="1564"/>
      <point x="1405" y="1564" type="curve" smooth="yes"/>
      <point x="1420" y="1564" type="line"/>
      <point x="1420" y="1698" type="line"/>
    </contour>
    <contour>
      <point x="917" y="1279" type="line"/>
      <point x="835" y="1327" type="line"/>
      <point x="894" y="1432" type="line"/>
      <point x="893" y="1582" type="line"/>
      <point x="1072" y="1582" type="line"/>
      <point x="1072" y="1450" type="line"/>
    </contour>
    <contour>
      <point x="622" y="1456" type="line"/>
      <point x="325" y="1456"/>
      <point x="106" y="1280"/>
      <point x="106" y="953" type="curve" smooth="yes"/>
      <point x="106" y="482" type="line" smooth="yes"/>
      <point x="106" y="155"/>
      <point x="325" y="-21"/>
      <point x="622" y="-21" type="curve" smooth="yes"/>
      <point x="883" y="-21"/>
      <point x="1076" y="155"/>
      <point x="1076" y="482" type="curve" smooth="yes"/>
      <point x="1076" y="816" type="line"/>
      <point x="813" y="816" type="line"/>
      <point x="813" y="482" type="line" smooth="yes"/>
      <point x="813" y="312"/>
      <point x="742" y="239"/>
      <point x="622" y="239" type="curve" smooth="yes"/>
      <point x="505" y="239"/>
      <point x="429" y="312"/>
      <point x="429" y="482" type="curve" smooth="yes"/>
      <point x="429" y="953" type="line" smooth="yes"/>
      <point x="429" y="1123"/>
      <point x="505" y="1196"/>
      <point x="622" y="1196" type="curve"/>
    </contour>
    <contour>
      <point x="1307" y="1196" type="line"/>
      <point x="1424" y="1196"/>
      <point x="1500" y="1123"/>
      <point x="1500" y="953" type="curve" smooth="yes"/>
      <point x="1500" y="482" type="line" smooth="yes"/>
      <point x="1500" y="312"/>
      <point x="1424" y="239"/>
      <point x="1307" y="239" type="curve" smooth="yes"/>
      <point x="1187" y="239"/>
      <point x="1116" y="312"/>
      <point x="1116" y="482" type="curve" smooth="yes"/>
      <point x="1116" y="816" type="line"/>
      <point x="853" y="816" type="line"/>
      <point x="853" y="482" type="line" smooth="yes"/>
      <point x="853" y="155"/>
      <point x="1046" y="-21"/>
      <point x="1307" y="-21" type="curve" smooth="yes"/>
      <point x="1604" y="-21"/>
      <point x="1823" y="155"/>
      <point x="1823" y="482" type="curve" smooth="yes"/>
      <point x="1823" y="953" type="line" smooth="yes"/>
      <point x="1823" y="1280"/>
      <point x="1604" y="1456"/>
      <point x="1307" y="1456" type="curve"/>
    </contour>
  </outline>
</glyph>
<glyph name="uni047D" format="1">
  <advance width="1591"/>
  <unicode hex="047D"/>
  <outline>
    <contour>
      <point x="1258" y="1360" type="line" smooth="yes"/>
      <point x="1052" y="1360"/>
      <point x="918" y="1480"/>
      <point x="765" y="1480" type="curve" smooth="yes"/>
      <point x="621" y="1480"/>
      <point x="534" y="1412"/>
      <point x="534" y="1263" type="curve" smooth="yes"/>
      <point x="534" y="1226" type="line"/>
      <point x="666" y="1226" type="line"/>
      <point x="666" y="1244" type="line" smooth="yes"/>
      <point x="666" y="1316"/>
      <point x="708" y="1346"/>
      <point x="768" y="1346" type="curve" smooth="yes"/>
      <point x="879" y="1346"/>
      <point x="1031" y="1226"/>
      <point x="1257" y="1226" type="curve" smooth="yes"/>
      <point x="1272" y="1226" type="line"/>
      <point x="1272" y="1360" type="line"/>
    </contour>
    <contour>
      <point x="924" y="1132" type="line"/>
      <point x="769" y="961" type="line"/>
      <point x="687" y="1009" type="line"/>
      <point x="746" y="1114" type="line"/>
      <point x="745" y="1244" type="line"/>
      <point x="924" y="1244" type="line"/>
    </contour>
    <contour>
      <point x="572" y="1102" type="line"/>
      <point x="287" y="1102"/>
      <point x="76" y="933"/>
      <point x="76" y="619" type="curve" smooth="yes"/>
      <point x="76" y="462" type="line" smooth="yes"/>
      <point x="76" y="148"/>
      <point x="269" y="-21"/>
      <point x="532" y="-21" type="curve" smooth="yes"/>
      <point x="747" y="-21"/>
      <point x="906" y="155"/>
      <point x="906" y="482" type="curve" smooth="yes"/>
      <point x="906" y="616" type="line"/>
      <point x="663" y="616" type="line"/>
      <point x="663" y="482" type="line" smooth="yes"/>
      <point x="663" y="312"/>
      <point x="614" y="239"/>
      <point x="532" y="239" type="curve" smooth="yes"/>
      <point x="451" y="239"/>
      <point x="399" y="306"/>
      <point x="399" y="462" type="curve" smooth="yes"/>
      <point x="399" y="619" type="line" smooth="yes"/>
      <point x="399" y="775"/>
      <point x="467" y="842"/>
      <point x="572" y="842" type="curve"/>
    </contour>
    <contour>
      <point x="1057" y="842" type="line"/>
      <point x="1162" y="842"/>
      <point x="1230" y="775"/>
      <point x="1230" y="619" type="curve" smooth="yes"/>
      <point x="1230" y="462" type="line" smooth="yes"/>
      <point x="1230" y="306"/>
      <point x="1178" y="239"/>
      <point x="1097" y="239" type="curve" smooth="yes"/>
      <point x="1015" y="239"/>
      <point x="966" y="312"/>
      <point x="966" y="482" type="curve" smooth="yes"/>
      <point x="966" y="616" type="line"/>
      <point x="723" y="616" type="line"/>
      <point x="723" y="482" type="line" smooth="yes"/>
      <point x="723" y="155"/>
      <point x="882" y="-21"/>
      <point x="1097" y="-21" type="curve" smooth="yes"/>
      <point x="1359" y="-21"/>
      <point x="1553" y="148"/>
      <point x="1553" y="462" type="curve" smooth="yes"/>
      <point x="1553" y="619" type="line" smooth="yes"/>
      <point x="1553" y="933"/>
      <point x="1342" y="1102"/>
      <point x="1057" y="1102" type="curve"/>
    </contour>
  </outline>
</glyph>
<glyph name="uni0485" format="1">
  <advance width="455"/>
  <unicode hex="0485"/>
  <outline>
    <contour>
      <point x="262" y="1309" type="line"/>
      <point x="343" y="1377" type="line"/>
      <point x="285" y="1482" type="line"/>
      <point x="286" y="1652" type="line"/>
      <point x="96" y="1652" type="line"/>
      <point x="96" y="1500" type="line"/>
    </contour>
  </outline>
</glyph>
<glyph name="uni0486" format="1">
  <advance width="455"/>
  <unicode hex="0486"/>
  <outline>
    <contour>
      <point x="351" y="1500" type="line"/>
      <point x="351" y="1652" type="line"/>
      <point x="162" y="1652" type="line"/>
      <point x="163" y="1482" type="line"/>
      <point x="104" y="1377" type="line"/>
      <point x="186" y="1309" type="line"/>
    </contour>
  </outline>
</glyph>
<glyph name="uni04A5" format="1">
  <advance width="1595"/>
  <unicode hex="04A5"/>
  <outline>
    <contour>
      <point x="1542" y="1082" type="line"/>
      <point x="1112" y="1082" type="line"/>
      <point x="1108" y="822" type="line"/>
      <point x="1542" y="822" type="line"/>
    </contour>
    <contour>
      <point x="1542" y="1082" type="line"/>
      <point x="1272" y="1082" type="line"/>
      <point x="1301" y="689" type="line"/>
      <point x="1542" y="689" type="line"/>
    </contour>
    <contour>
      <point x="936" y="660" type="line"/>
      <point x="394" y="660" type="line"/>
      <point x="394" y="401" type="line"/>
      <point x="936" y="401" type="line"/>
    </contour>
    <contour>
      <point x="508" y="1082" type="line"/>
      <point x="186" y="1082" type="line"/>
      <point x="186" y="0" type="line"/>
      <point x="508" y="0" type="line"/>
    </contour>
    <contour>
      <point x="1146" y="1082" type="line"/>
      <point x="823" y="1082" type="line"/>
      <point x="823" y="0" type="line"/>
      <point x="1146" y="0" type="line"/>
    </contour>
    <contour>
      <point x="1146" y="1082" type="line"/>
      <point x="1146" y="852" type="line"/>
      <point x="1299" y="882" type="line"/>
      <point x="1299" y="1082" type="line"/>
    </contour>
    <contour>
      <point x="823" y="1082" type="line"/>
      <point x="710" y="1082" type="line"/>
      <point x="710" y="882" type="line"/>
      <point x="823" y="852" type="line"/>
    </contour>
    <contour>
      <point x="823" y="0" type="line"/>
      <point x="823" y="230" type="line"/>
      <point x="710" y="200" type="line"/>
      <point x="710" y="0" type="line"/>
    </contour>
    <contour>
      <point x="1146" y="0" type="line"/>
      <point x="1299" y="0" type="line"/>
      <point x="1299" y="200" type="line"/>
      <point x="1146" y="230" type="line"/>
    </contour>
    <contour>
      <point x="508" y="0" type="line"/>
      <point x="621" y="0" type="line"/>
      <point x="621" y="200" type="line"/>
      <point x="508" y="230" type="line"/>
    </contour>
    <contour>
      <point x="186" y="0" type="line"/>
      <point x="186" y="230" type="line"/>
      <point x="33" y="200" type="line"/>
      <point x="33" y="0" type="line"/>
    </contour>
    <contour>
      <point x="186" y="1082" type="line"/>
      <point x="33" y="1082" type="line"/>
      <point x="33" y="882" type="line"/>
      <point x="186" y="852" type="line"/>
    </contour>
    <contour>
      <point x="508" y="1082" type="line"/>
      <point x="508" y="852" type="line"/>
      <point x="621" y="882" type="line"/>
      <point x="621" y="1082" type="line"/>
    </contour>
  </outline>
</glyph>
<glyph name="endash" format="1">
  <advance width="1362"/>
  <unicode hex="2013"/>
  <outline>
    <contour>
      <point x="1250" y="842" type="line"/>
      <point x="166" y="842" type="line"/>
      <point x="166" y="578" type="line"/>
      <point x="1250" y="578" type="line"/>
    </contour>
  </outline>
</glyph>
<glyph name="Euro" format="1">
  <advance width="1065"/>
  <unicode hex="20AC"/>
  <outline>
    <contour>
      <point x="757" y="239" type="curve" smooth="yes"/>
      <point x="612" y="239"/>
      <point x="523" y="307"/>
      <point x="523" y="458" type="curve" smooth="yes"/>
      <point x="523" y="963" type="line" smooth="yes"/>
      <point x="523" y="1125"/>
      <point x="610" y="1217"/>
      <point x="755" y="1217" type="curve" smooth="yes"/>
      <point x="834" y="1217"/>
      <point x="910" y="1203"/>
      <point x="977" y="1182" type="curve"/>
      <point x="998" y="1446" type="line"/>
      <point x="915" y="1465"/>
      <point x="840" y="1477"/>
      <point x="755" y="1477" type="curve" smooth="yes"/>
      <point x="427" y="1477"/>
      <point x="200" y="1278"/>
      <point x="200" y="961" type="curve" smooth="yes"/>
      <point x="200" y="458" type="line" smooth="yes"/>
      <point x="200" y="162"/>
      <point x="429" y="-21"/>
      <point x="757" y="-21" type="curve" smooth="yes"/>
      <point x="841" y="-21"/>
      <point x="923" y="-10"/>
      <point x="998" y="10" type="curve"/>
      <point x="977" y="272" type="line"/>
      <point x="910" y="251"/>
      <point x="835" y="239"/>
    </contour>
    <contour>
      <point x="930" y="948" type="line"/>
      <point x="54" y="948" type="line"/>
      <point x="54" y="782" type="line"/>
      <point x="930" y="782" type="line"/>
    </contour>
    <contour>
      <point x="930" y="638" type="line"/>
      <point x="54" y="638" type="line"/>
      <point x="54" y="472" type="line"/>
      <point x="930" y="472" type="line"/>
    </contour>
  </outline>
</glyph>
<glyph name="minus" format="1">
  <advance width="1111"/>
  <unicode hex="2212"/>
  <outline>
    <contour>
      <point x="976" y="842" type="line"/>
      <point x="142" y="842" type="line"/>
      <point x="142" y="578" type="line"/>
      <point x="976" y="578" type="line"/>
    </contour>
  </outline>
</glyph>
<glyph name="greaterequal" format="1">
  <advance width="1021"/>
  <unicode hex="2265"/>
  <outline>
    <contour>
      <point x="715" y="689" type="line"/>
      <point x="974" y="675" type="line"/>
      <point x="974" y="812" type="line"/>
      <point x="97" y="1104" type="line"/>
      <point x="97" y="856" type="line"/>
    </contour>
    <contour>
      <point x="97" y="553" type="line"/>
      <point x="97" y="305" type="line"/>
      <point x="974" y="596" type="line"/>
      <point x="974" y="733" type="line"/>
      <point x="715" y="724" type="line"/>
    </contour>
    <contour>
      <point x="933" y="242" type="line"/>
      <point x="99" y="242" type="line"/>
      <point x="99" y="2" type="line"/>
      <point x="933" y="2" type="line"/>
    </contour>
  </outline>
</glyph>
<glyph name="D.smcp" format="1">
  <advance width="1276"/>
  <outline>
    <contour>
      <point x="672" y="0" type="line" smooth="yes"/>
      <point x="976" y="0"/>
      <point x="1197" y="194"/>
      <point x="1197" y="477" type="curve" smooth="yes"/>
      <point x="1197" y="687" type="line" smooth="yes"/>
      <point x="1197" y="970"/>
      <point x="976" y="1165"/>
      <point x="672" y="1165" type="curve" smooth="yes"/>
      <point x="333" y="1165" type="line"/>
      <point x="333" y="907" type="line"/>
      <point x="672" y="907" type="line" smooth="yes"/>
      <point x="798" y="907"/>
      <point x="874" y="817"/>
      <point x="874" y="688" type="curve" smooth="yes"/>
      <point x="874" y="477" type="line" smooth="yes"/>
      <point x="874" y="349"/>
      <point x="798" y="258"/>
      <point x="672" y="258" type="curve" smooth="yes"/>
      <point x="340" y="258" type="line"/>
      <point x="338" y="0" type="line"/>
    </contour>
    <contour>
      <point x="523" y="1165" type="line"/>
      <point x="201" y="1165" type="line"/>
      <point x="201" y="0" type="line"/>
      <point x="523" y="0" type="line"/>
    </contour>
    <contour>
      <point x="201" y="0" type="line"/>
      <point x="201" y="230" type="line"/>
      <point x="48" y="200" type="line"/>
      <point x="48" y="0" type="line"/>
    </contour>
    <contour>
      <point x="201" y="1165" type="line"/>
      <point x="48" y="1165" type="line"/>
      <point x="48" y="965" type="line"/>
      <point x="201" y="935" type="line"/>
    </contour>
  </outline>
</glyph>
<glyph name="G.ss04" format="1">
  <advance width="1319"/>
  <outline>
    <contour>
      <point x="1250" y="738" type="line"/>
      <point x="758" y="738" type="line"/>
      <point x="758" y="534" type="line"/>
      <point x="927" y="514" type="line"/>
      <point x="927" y="274" type="line"/>
      <point x="893" y="256"/>
      <point x="829" y="239"/>
      <point x="687" y="239" type="curve" smooth="yes"/>
      <point x="507" y="239"/>
      <point x="403" y="379"/>
      <point x="403" y="576" type="curve" smooth="yes"/>
      <point x="403" y="882" type="line" smooth="yes"/>
      <point x="403" y="1080"/>
      <point x="512" y="1217"/>
      <point x="677" y="1217" type="curve" smooth="yes"/>
      <point x="849" y="1217"/>
      <point x="915" y="1131"/>
      <point x="937" y="986" type="curve"/>
      <point x="1249" y="986" type="line"/>
      <point x="1218" y="1274"/>
      <point x="1055" y="1477"/>
      <point x="667" y="1477" type="curve" smooth="yes"/>
      <point x="325" y="1477"/>
      <point x="81" y="1233"/>
      <point x="81" y="880" type="curve" smooth="yes"/>
      <point x="81" y="576" type="line" smooth="yes"/>
      <point x="81" y="223"/>
      <point x="330" y="-21"/>
      <point x="687" y="-21" type="curve" smooth="yes"/>
      <point x="1005" y="-21"/>
      <point x="1178" y="87"/>
      <point x="1250" y="161" type="curve"/>
    </contour>
  </outline>
</glyph>
<glyph name="N.smcp" format="1">
  <advance width="1495"/>
  <outline>
    <contour>
      <point x="1214" y="97" type="line"/>
      <point x="555" y="1165" type="line"/>
      <point x="315" y="1068" type="line"/>
      <point x="971" y="0" type="line"/>
    </contour>
    <contour>
      <point x="555" y="1165" type="line"/>
      <point x="233" y="1165" type="line"/>
      <point x="233" y="0" type="line"/>
      <point x="555" y="0" type="line"/>
    </contour>
    <contour>
      <point x="1294" y="1165" type="line"/>
      <point x="971" y="1165" type="line"/>
      <point x="971" y="0" type="line"/>
      <point x="1294" y="0" type="line"/>
    </contour>
    <contour>
      <point x="1294" y="1165" type="line"/>
      <point x="1294" y="935" type="line"/>
      <point x="1447" y="965" type="line"/>
      <point x="1447" y="1165" type="line"/>
    </contour>
    <contour>
      <point x="971" y="1165" type="line"/>
      <point x="818" y="1165" type="line"/>
      <point x="818" y="965" type="line"/>
      <point x="971" y="935" type="line"/>
    </contour>
    <contour>
      <point x="555" y="0" type="line"/>
      <point x="708" y="0" type="line"/>
      <point x="708" y="200" type="line"/>
      <point x="555" y="230" type="line"/>
    </contour>
    <contour>
      <point x="233" y="0" type="line"/>
      <point x="233" y="230" type="line"/>
      <point x="80" y="200" type="line"/>
      <point x="80" y="0" type="line"/>
    </contour>
    <contour>
      <point x="233" y="1165" type="line"/>
      <point x="80" y="1165" type="line"/>
      <point x="80" y="965" type="line"/>
      <point x="233" y="935" type="line"/>
    </contour>
  </outline>
</glyph>
<glyph name="P.smcp" format="1">
  <advance width="1286"/>
  <outline>
    <contour>
      <point x="748" y="337" type="line" smooth="yes"/>
      <point x="1056" y="337"/>
      <point x="1257" y="512"/>
      <point x="1257" y="751" type="curve" smooth="yes"/>
      <point x="1257" y="991"/>
      <point x="1056" y="1165"/>
      <point x="748" y="1165" type="curve" smooth="yes"/>
      <point x="233" y="1165" type="line"/>
      <point x="233" y="0" type="line"/>
      <point x="555" y="0" type="line"/>
      <point x="555" y="907" type="line"/>
      <point x="748" y="907" type="line" smooth="yes"/>
      <point x="867" y="907"/>
      <point x="936" y="832"/>
      <point x="936" y="749" type="curve" smooth="yes"/>
      <point x="936" y="668"/>
      <point x="867" y="596"/>
      <point x="748" y="596" type="curve" smooth="yes"/>
      <point x="429" y="596" type="line"/>
      <point x="429" y="337" type="line"/>
    </contour>
    <contour>
      <point x="233" y="0" type="line"/>
      <point x="233" y="230" type="line"/>
      <point x="80" y="200" type="line"/>
      <point x="80" y="0" type="line"/>
    </contour>
    <contour>
      <point x="555" y="0" type="line"/>
      <point x="708" y="0" type="line"/>
      <point x="708" y="200" type="line"/>
      <point x="555" y="230" type="line"/>
    </contour>
    <contour>
      <point x="233" y="1165" type="line"/>
      <point x="80" y="1165" type="line"/>
      <point x="80" y="965" type="line"/>
      <point x="233" y="935" type="line"/>
    </contour>
  </outline>
</glyph>
<glyph name="W.smcp" format="1">
  <advance width="1632"/>
  <outline>
    <contour>
      <point x="422" y="106" type="line"/>
      <point x="478" y="0" type="line"/>
      <point x="647" y="0" type="line"/>
      <point x="909" y="1034" type="line"/>
      <point x="845" y="1165" type="line"/>
      <point x="684" y="1165" type="line"/>
    </contour>
    <contour>
      <point x="396" y="1165" type="line"/>
      <point x="61" y="1165" type="line"/>
      <point x="328" y="0" type="line"/>
      <point x="516" y="0" type="line"/>
      <point x="577" y="111" type="line"/>
    </contour>
    <contour>
      <point x="1046" y="109" type="line"/>
      <point x="1110" y="0" type="line"/>
      <point x="1298" y="0" type="line"/>
      <point x="1566" y="1165" type="line"/>
      <point x="1230" y="1165" type="line"/>
    </contour>
    <contour>
      <point x="943" y="1165" type="line"/>
      <point x="782" y="1165" type="line"/>
      <point x="709" y="1032" type="line"/>
      <point x="980" y="0" type="line"/>
      <point x="1148" y="0" type="line"/>
      <point x="1203" y="109" type="line"/>
    </contour>
    <contour>
      <point x="1566" y="1165" type="line"/>
      <point x="1386" y="935" type="line"/>
      <point x="1609" y="965" type="line"/>
      <point x="1609" y="1165" type="line"/>
    </contour>
    <contour>
      <point x="1230" y="1165" type="line"/>
      <point x="1077" y="1165" type="line"/>
      <point x="1077" y="965" type="line"/>
      <point x="1230" y="935" type="line"/>
    </contour>
    <contour>
      <point x="61" y="1165" type="line"/>
      <point x="18" y="1165" type="line"/>
      <point x="18" y="965" type="line"/>
      <point x="241" y="935" type="line"/>
    </contour>
    <contour>
      <point x="396" y="1165" type="line"/>
      <point x="396" y="935" type="line"/>
      <point x="549" y="965" type="line"/>
      <point x="549" y="1165" type="line"/>
    </contour>
  </outline>
</glyph>
<glyph name="c.ss03" format="1">
  <advance width="1083"/>
  <outline>
    <contour>
      <point x="582" y="239" type="curve" smooth="yes"/>
      <point x="431" y="239"/>
      <point x="394" y="369"/>
      <point x="394" y="529" type="curve" smooth="yes"/>
      <point x="394" y="552" type="line" smooth="yes"/>
      <point x="394" y="708"/>
      <point x="432" y="842"/>
      <point x="580" y="842" type="curve" smooth="yes"/>
      <point x="682" y="842"/>
      <point x="729" y="765"/>
      <point x="729" y="668" type="curve"/>
      <point x="1031" y="668" type="line"/>
      <point x="1031" y="943"/>
      <point x="849" y="1102"/>
      <point x="580" y="1102" type="curve" smooth="yes"/>
      <point x="245" y="1102"/>
      <point x="72" y="865"/>
      <point x="72" y="552" type="curve" smooth="yes"/>
      <point x="72" y="529" type="line" smooth="yes"/>
      <point x="72" y="216"/>
      <point x="245" y="-21"/>
      <point x="582" y="-21" type="curve" smooth="yes"/>
      <point x="839" y="-21"/>
      <point x="1031" y="141"/>
      <point x="1031" y="385" type="curve"/>
      <point x="729" y="385" type="line"/>
      <point x="729" y="293"/>
      <point x="680" y="239"/>
    </contour>
  </outline>
</glyph>
<glyph name="cyrillichook" format="1">
  <advance width="596"/>
  <outline>
    <contour>
      <point x="169" y="157" type="line"/>
      <point x="169" y="-15" type="line" smooth="yes"/>
      <point x="169" y="-83"/>
      <point x="141" y="-117"/>
      <point x="91" y="-117" type="curve" smooth="yes"/>
      <point x="48" y="-117"/>
      <point x="24" y="-113"/>
      <point x="-9" y="-105" type="curve"/>
      <point x="-23" y="-360" type="line"/>
      <point x="32" y="-373"/>
      <point x="77" y="-377"/>
      <point x="132" y="-377" type="curve" smooth="yes"/>
      <point x="357" y="-377"/>
      <point x="492" y="-249"/>
      <point x="492" y="-15" type="curve" smooth="yes"/>
      <point x="492" y="157" type="line"/>
    </contour>
  </outline>
</glyph>
<glyph name="cyrillichookleft" format="1">
  <advance width="467"/>
  <outline>
    <contour>
      <point x="103" y="0" type="line"/>
      <point x="148" y="-51"/>
      <point x="191" y="-94"/>
      <point x="191" y="-164" type="curve" smooth="yes"/>
      <point x="191" y="-172"/>
      <point x="190" y="-223"/>
      <point x="109" y="-223" type="curve" smooth="yes"/>
      <point x="66" y="-223"/>
      <point x="37" y="-213"/>
      <point x="17" y="-205" type="curve"/>
      <point x="-19" y="-373" type="line"/>
      <point x="18" y="-393"/>
      <point x="76" y="-417"/>
      <point x="167" y="-417" type="curve" smooth="yes"/>
      <point x="310" y="-417"/>
      <point x="425" y="-343"/>
      <point x="425" y="-203" type="curve" smooth="yes"/>
      <point x="425" y="-109"/>
      <point x="376" y="-13"/>
      <point x="255" y="60" type="curve"/>
    </contour>
  </outline>
</glyph>
<glyph name="cyrillictic" format="1">
  <advance width="588"/>
  <outline>
    <contour>
      <point x="466" y="190" type="line"/>
      <point x="144" y="190" type="line"/>
      <point x="144" y="-362" type="line"/>
      <point x="466" y="-362" type="line"/>
    </contour>
  </outline>
</glyph>
<glyph name="four.lnum" format="1">
  <advance width="1149"/>
  <outline>
    <contour>
      <point x="1107" y="569" type="line"/>
      <point x="332" y="569" type="line"/>
      <point x="601" y="978" type="line"/>
      <point x="886" y="1456" type="line"/>
      <point x="632" y="1456" type="line"/>
      <point x="40" y="515" type="line"/>
      <point x="58" y="307" type="line"/>
      <point x="1107" y="307" type="line"/>
    </contour>
    <contour>
      <point x="954" y="1456" type="line"/>
      <point x="632" y="1456" type="line"/>
      <point x="632" y="0" type="line"/>
      <point x="954" y="0" type="line"/>
    </contour>
  </outline>
</glyph>
<glyph name="g.alt" format="1">
  <advance width="1173"/>
  <outline>
    <contour>
      <point x="84" y="710" type="line" smooth="yes"/>
      <point x="84" y="502"/>
      <point x="275" y="339"/>
      <point x="569" y="339" type="curve" smooth="yes"/>
      <point x="862" y="339"/>
      <point x="1051" y="502"/>
      <point x="1051" y="710" type="curve" smooth="yes"/>
      <point x="1051" y="732" type="line" smooth="yes"/>
      <point x="1051" y="953"/>
      <point x="862" y="1102"/>
      <point x="567" y="1102" type="curve" smooth="yes"/>
      <point x="275" y="1102"/>
      <point x="84" y="953"/>
      <point x="84" y="732" type="curve" smooth="yes"/>
    </contour>
    <contour>
      <point x="404" y="732" type="line" smooth="yes"/>
      <point x="404" y="807"/>
      <point x="464" y="862"/>
      <point x="567" y="862" type="curve" smooth="yes"/>
      <point x="671" y="862"/>
      <point x="731" y="807"/>
      <point x="731" y="732" type="curve" smooth="yes"/>
      <point x="731" y="710" type="line" smooth="yes"/>
      <point x="731" y="639"/>
      <point x="673" y="579"/>
      <point x="569" y="579" type="curve" smooth="yes"/>
      <point x="463" y="579"/>
      <point x="404" y="639"/>
      <point x="404" y="710" type="curve" smooth="yes"/>
    </contour>
    <contour>
      <point x="376" y="449" type="line"/>
      <point x="302" y="409"/>
      <point x="189" y="344"/>
      <point x="189" y="208" type="curve" smooth="yes"/>
      <point x="189" y="56"/>
      <point x="321" y="-2"/>
      <point x="476" y="-2" type="curve" smooth="yes"/>
      <point x="646" y="-2" type="line" smooth="yes"/>
      <point x="735" y="-2"/>
      <point x="762" y="-49"/>
      <point x="762" y="-87" type="curve" smooth="yes"/>
      <point x="762" y="-140"/>
      <point x="702" y="-199"/>
      <point x="541" y="-199" type="curve" smooth="yes"/>
      <point x="412" y="-199"/>
      <point x="351" y="-145"/>
      <point x="351" y="-82" type="curve" smooth="yes"/>
      <point x="351" y="-29"/>
      <point x="382" y="11"/>
      <point x="416" y="19" type="curve"/>
      <point x="355" y="118" type="line"/>
      <point x="218" y="93"/>
      <point x="51" y="2"/>
      <point x="51" y="-162" type="curve" smooth="yes"/>
      <point x="51" y="-309"/>
      <point x="223" y="-438"/>
      <point x="541" y="-438" type="curve" smooth="yes"/>
      <point x="885" y="-438"/>
      <point x="1082" y="-238"/>
      <point x="1082" y="-67" type="curve" smooth="yes"/>
      <point x="1082" y="123"/>
      <point x="943" y="238"/>
      <point x="705" y="238" type="curve" smooth="yes"/>
      <point x="576" y="238" type="line" smooth="yes"/>
      <point x="504" y="238"/>
      <point x="449" y="248"/>
      <point x="449" y="308" type="curve" smooth="yes"/>
      <point x="449" y="360"/>
      <point x="502" y="384"/>
      <point x="538" y="399" type="curve"/>
    </contour>
    <contour>
      <point x="1113" y="1082" type="line"/>
      <point x="707" y="1082" type="line"/>
      <point x="717" y="928" type="line"/>
      <point x="1115" y="928" type="line"/>
    </contour>
  </outline>
</glyph>
<glyph name="nine.smcp" format="1">
  <advance width="1079"/>
  <outline>
    <contour>
      <point x="497" y="241" type="curve" smooth="yes"/>
      <point x="397" y="241"/>
      <point x="322" y="253"/>
      <point x="245" y="272" type="curve"/>
      <point x="192" y="33" type="line"/>
      <point x="292" y="3"/>
      <point x="412" y="-17"/>
      <point x="517" y="-17" type="curve" smooth="yes"/>
      <point x="785" y="-17"/>
      <point x="995" y="159"/>
      <point x="995" y="413" type="curve" smooth="yes"/>
      <point x="995" y="719" type="line" smooth="yes"/>
      <point x="995" y="993"/>
      <point x="795" y="1181"/>
      <point x="538" y="1181" type="curve" smooth="yes"/>
      <point x="254" y="1181"/>
      <point x="57" y="1009"/>
      <point x="57" y="790" type="curve" smooth="yes"/>
      <point x="57" y="557"/>
      <point x="216" y="404"/>
      <point x="481" y="404" type="curve" smooth="yes"/>
      <point x="654" y="404"/>
      <point x="798" y="522"/>
      <point x="798" y="738" type="curve"/>
      <point x="706" y="737" type="line"/>
      <point x="706" y="682"/>
      <point x="647" y="619"/>
      <point x="531" y="619" type="curve" smooth="yes"/>
      <point x="429" y="619"/>
      <point x="379" y="688"/>
      <point x="379" y="777" type="curve" smooth="yes"/>
      <point x="379" y="853"/>
      <point x="427" y="924"/>
      <point x="512" y="924" type="curve" smooth="yes"/>
      <point x="605" y="924"/>
      <point x="673" y="846"/>
      <point x="673" y="737" type="curve" smooth="yes"/>
      <point x="673" y="412" type="line" smooth="yes"/>
      <point x="673" y="313"/>
      <point x="594" y="241"/>
    </contour>
  </outline>
</glyph>
<glyph name="three.smcp" format="1">
  <advance width="1061"/>
  <outline>
    <contour>
      <point x="602" y="557" type="line" smooth="yes"/>
      <point x="832" y="557"/>
      <point x="986" y="688"/>
      <point x="986" y="849" type="curve" smooth="yes"/>
      <point x="986" y="1067"/>
      <point x="804" y="1181"/>
      <point x="523" y="1181" type="curve" smooth="yes"/>
      <point x="280" y="1181"/>
      <point x="82" y="1054"/>
      <point x="82" y="830" type="curve"/>
      <point x="405" y="830" type="line"/>
      <point x="405" y="894"/>
      <point x="461" y="924"/>
      <point x="543" y="924" type="curve" smooth="yes"/>
      <point x="625" y="924"/>
      <point x="665" y="868"/>
      <point x="665" y="817" type="curve" smooth="yes"/>
      <point x="665" y="743"/>
      <point x="627" y="704"/>
      <point x="537" y="704" type="curve" smooth="yes"/>
      <point x="321" y="704" type="line"/>
      <point x="321" y="557" type="line"/>
    </contour>
    <contour>
      <point x="321" y="629" type="line"/>
      <point x="321" y="487" type="line"/>
      <point x="537" y="487" type="line" smooth="yes"/>
      <point x="633" y="487"/>
      <point x="684" y="458"/>
      <point x="684" y="357" type="curve" smooth="yes"/>
      <point x="684" y="300"/>
      <point x="633" y="241"/>
      <point x="545" y="241" type="curve" smooth="yes"/>
      <point x="448" y="241"/>
      <point x="387" y="286"/>
      <point x="387" y="341" type="curve"/>
      <point x="65" y="341" type="line"/>
      <point x="65" y="90"/>
      <point x="298" y="-17"/>
      <point x="523" y="-17" type="curve" smooth="yes"/>
      <point x="804" y="-17"/>
      <point x="1006" y="108"/>
      <point x="1006" y="327" type="curve" smooth="yes"/>
      <point x="1006" y="521"/>
      <point x="857" y="629"/>
      <point x="602" y="629" type="curve" smooth="yes"/>
    </contour>
  </outline>
</glyph>
<glyph name="three.sup" format="1">
  <advance width="832"/>
  <outline>
    <contour>
      <point x="450" y="384" type="line" smooth="yes"/>
      <point x="618" y="384"/>
      <point x="731" y="473"/>
      <point x="731" y="583" type="curve" smooth="yes"/>
      <point x="731" y="733"/>
      <point x="599" y="812"/>
      <point x="398" y="812" type="curve" smooth="yes"/>
      <point x="223" y="812"/>
      <point x="81" y="728"/>
      <point x="81" y="577" type="curve"/>
      <point x="303" y="577" type="line"/>
      <point x="303" y="610"/>
      <point x="335" y="646"/>
      <point x="405" y="646" type="curve" smooth="yes"/>
      <point x="479" y="646"/>
      <point x="508" y="606"/>
      <point x="508" y="563" type="curve" smooth="yes"/>
      <point x="508" y="508"/>
      <point x="474" y="473"/>
      <point x="389" y="473" type="curve" smooth="yes"/>
      <point x="285" y="473" type="line"/>
      <point x="285" y="384" type="line"/>
    </contour>
    <contour>
      <point x="285" y="433" type="line"/>
      <point x="285" y="339" type="line"/>
      <point x="389" y="339" type="line" smooth="yes"/>
      <point x="477" y="339"/>
      <point x="523" y="300"/>
      <point x="523" y="241" type="curve" smooth="yes"/>
      <point x="523" y="183"/>
      <point x="475" y="156"/>
      <point x="409" y="156" type="curve" smooth="yes"/>
      <point x="330" y="156"/>
      <point x="291" y="187"/>
      <point x="291" y="240" type="curve"/>
      <point x="68" y="240" type="line"/>
      <point x="68" y="77"/>
      <point x="218" y="-11"/>
      <point x="412" y="-11" type="curve" smooth="yes"/>
      <point x="617" y="-11"/>
      <point x="745" y="74"/>
      <point x="745" y="225" type="curve" smooth="yes"/>
      <point x="745" y="358"/>
      <point x="636" y="433"/>
      <point x="450" y="433" type="curve" smooth="yes"/>
    </contour>
  </outline>
</glyph>
<glyph name="zero.lnum" format="1">
  <advance width="1186"/>
  <outline>
    <contour>
      <point x="1104" y="881" type="line" smooth="yes"/>
      <point x="1104" y="1287"/>
      <point x="898" y="1477"/>
      <point x="601" y="1477" type="curve" smooth="yes"/>
      <point x="303" y="1477"/>
      <point x="99" y="1287"/>
      <point x="99" y="881" type="curve" smooth="yes"/>
      <point x="99" y="575" type="line" smooth="yes"/>
      <point x="99" y="169"/>
      <point x="305" y="-21"/>
      <point x="603" y="-21" type="curve" smooth="yes"/>
      <point x="900" y="-21"/>
      <point x="1104" y="169"/>
      <point x="1104" y="575" type="curve" smooth="yes"/>
    </contour>
    <contour>
      <point x="782" y="554" type="line" smooth="yes"/>
      <point x="782" y="318"/>
      <point x="715" y="239"/>
      <point x="603" y="239" type="curve" smooth="yes"/>
      <point x="489" y="239"/>
      <point x="421" y="318"/>
      <point x="421" y="554" type="curve" smooth="yes"/>
      <point x="421" y="904" type="line" smooth="yes"/>
      <point x="421" y="1136"/>
      <point x="488" y="1217"/>
      <point x="601" y="1217" type="curve" smooth="yes"/>
      <point x="714" y="1217"/>
      <point x="782" y="1136"/>
      <point x="782" y="904" type="curve" smooth="yes"/>
    </contour>
  </outline>
</glyph>
<glyph name="zero.sup" format="1">
  <advance width="929"/>
  <outline>
    <contour>
      <point x="823" y="480" type="line" smooth="yes"/>
      <point x="823" y="684"/>
      <point x="676" y="812"/>
      <point x="464" y="812" type="curve" smooth="yes"/>
      <point x="251" y="812"/>
      <point x="106" y="684"/>
      <point x="106" y="480" type="curve" smooth="yes"/>
      <point x="106" y="320" type="line" smooth="yes"/>
      <point x="106" y="116"/>
      <point x="252" y="-11"/>
      <point x="465" y="-11" type="curve" smooth="yes"/>
      <point x="678" y="-11"/>
      <point x="823" y="116"/>
      <point x="823" y="320" type="curve" smooth="yes"/>
    </contour>
    <contour>
      <point x="601" y="320" type="line" smooth="yes"/>
      <point x="601" y="215"/>
      <point x="549" y="156"/>
      <point x="465" y="156" type="curve" smooth="yes"/>
      <point x="379" y="156"/>
      <point x="328" y="215"/>
      <point x="328" y="320" type="curve" smooth="yes"/>
      <point x="328" y="482" type="line" smooth="yes"/>
      <point x="328" y="581"/>
      <point x="380" y="646"/>
      <point x="464" y="646" type="curve" smooth="yes"/>
      <point x="550" y="646"/>
      <point x="601" y="581"/>
      <point x="601" y="482" type="curve" smooth="yes"/>
    </contour>
  </outline>
</glyph>
